<svg width="275" height="100" viewBox="0 0 275 100" fill="none" xmlns="http://www.w3.org/2000/svg">
<path d="M195.973 57.5146C196.013 56.8267 196.07 56.2935 196.075 55.744C196.075 52.1376 196.075 48.5353 196.075 44.933C196.099 41.6767 197.946 39.8206 201.184 39.8165C222.86 39.8165 244.534 39.8165 266.204 39.8165C271.021 39.8165 274.341 43.1787 274.341 47.9899C274.365 51.7876 274.341 55.5853 274.341 59.387C264.849 59.387 255.48 59.387 246.115 59.387C243.011 59.387 240.484 60.4738 238.654 63.0504C234.992 68.1954 238.247 75.514 244.528 76.21C244.83 76.2506 245.135 76.275 245.44 76.2833H274.162C274.162 76.2833 274.284 76.3484 274.284 76.4257C274.304 80.5328 274.524 84.652 274.284 88.7468C274.024 93.0085 270.565 95.9514 266.294 95.9514C242.844 95.9514 219.394 95.9514 195.944 95.9514C193.89 95.9514 192.568 94.8931 192.551 93.2772C192.535 91.6612 193.902 90.5134 196.034 90.5012C198.011 90.5012 199.992 90.5012 201.97 90.5012C203.947 90.5012 204.923 89.5406 204.964 87.831C205.004 86.1214 203.898 84.9492 201.986 84.941C196.046 84.9125 190.106 84.941 184.167 84.9207C181.888 84.9207 180.603 83.3617 181.209 81.416C181.66 79.967 182.787 79.5599 184.179 79.564C189.204 79.564 194.229 79.564 199.252 79.564H214.48C216.583 79.564 217.95 78.4772 217.982 76.8002C218.015 75.1232 216.615 73.9509 214.427 73.9509H188.845C188.338 73.97 187.829 73.9564 187.324 73.9102C186.694 73.8227 186.116 73.5144 185.693 73.0402C185.27 72.5661 185.029 71.9569 185.013 71.3214C184.996 70.6859 185.206 70.0654 185.605 69.5703C186.004 69.0753 186.565 68.7381 187.189 68.6187C187.692 68.5472 188.2 68.5227 188.707 68.5454C194.695 68.5454 200.684 68.5454 206.672 68.5454C208.564 68.5454 209.821 67.4057 209.834 65.7816C209.846 64.1575 208.613 63.0585 206.705 62.9934C206.197 62.9934 205.688 62.9934 205.179 62.9934H179.281C178.774 63.0104 178.267 62.9927 177.763 62.9405C176.193 62.7166 175.322 61.6502 175.367 60.1278C175.412 58.6055 176.453 57.6245 178.048 57.6001C180.839 57.5594 183.63 57.6001 186.42 57.6001L195.973 57.5146Z" fill="#3C64B1"/>
<path d="M258.763 60.9217C263.238 60.9217 267.689 60.9217 272.152 60.9217C274.353 60.9217 275 61.5485 275 63.6936C275 66.5429 275 69.3922 275 72.2171C275 74.0691 274.255 74.8343 272.421 74.8384C263.442 74.8384 254.463 74.8995 245.484 74.8384C241.416 74.8018 238.662 71.8059 238.698 67.7803C238.735 63.7547 241.546 60.9909 245.671 60.9461C247.852 60.9217 250.033 60.9461 252.213 60.9461L258.763 60.9217ZM249.52 67.8414C249.523 67.374 249.434 66.9107 249.258 66.4778C249.082 66.0449 248.823 65.651 248.494 65.3187C248.166 64.9863 247.775 64.722 247.345 64.541C246.914 64.3599 246.452 64.2656 245.985 64.2635C245.04 64.2635 244.133 64.6392 243.465 65.3079C242.796 65.9766 242.421 66.8835 242.421 67.8292C242.421 68.7749 242.796 69.6818 243.465 70.3505C244.133 71.0192 245.04 71.3948 245.985 71.3948C246.45 71.3981 246.911 71.3088 247.341 71.1322C247.772 70.9556 248.163 70.6952 248.492 70.3661C248.821 70.037 249.081 69.6457 249.258 69.2151C249.434 68.7845 249.523 68.3231 249.52 67.8576V67.8414Z" fill="#3C64B1"/>
<path d="M248.633 38.3309C248.227 38.05 247.746 37.8425 247.486 37.472C246.82 36.4745 245.918 35.6571 244.861 35.0927C243.803 34.5283 242.622 34.2345 241.423 34.2373C240.224 34.2401 239.044 34.5395 237.989 35.1089C236.934 35.6782 236.036 36.4998 235.375 37.5005C235.212 37.7099 235.007 37.8823 234.773 38.0065C234.538 38.1307 234.28 38.2038 234.016 38.221C232.368 38.1599 230.729 37.9157 229.077 37.7814C228.582 37.7626 228.086 37.7926 227.596 37.8709C226.319 38.0297 225.049 38.2169 223.776 38.3919L223.634 37.9279L258.731 18.0318L270.411 38.6565C270.089 38.7498 269.757 38.8098 269.422 38.8356C267.771 38.6647 266.123 38.4286 264.467 38.2943C262.978 38.1925 262.612 37.8384 263.113 36.4341C263.378 35.6693 263.812 34.9739 264.382 34.3989C265.098 33.7069 265.196 33.1167 264.703 32.2782C263.483 30.243 262.307 28.163 261.135 26.0912C260.728 25.3911 260.322 25.1102 259.435 25.3219C257.494 25.7818 255.733 25.4684 254.386 23.7426C254.15 23.4373 253.243 23.3355 252.856 23.5309C250.444 24.8131 248.072 26.1807 245.725 27.6013C244.557 28.2974 244.297 29.5144 245.045 30.939C246.058 32.8643 247.193 34.7286 248.263 36.6376C248.524 37.0935 248.747 37.5697 248.987 38.0378L248.633 38.3309Z" fill="#3C64B1"/>
<path d="M256.668 17.1649C255.635 18.3168 254.907 18.1499 254.134 17.2015C253.234 16.1025 252.23 15.0931 251.286 14.0225C250.773 13.4323 250.293 13.3224 249.581 13.7702C247.832 14.8692 246.099 14.686 244.504 13.4283C243.796 12.8706 243.283 12.9683 242.645 13.5422C240.781 15.2599 238.857 16.9125 237.018 18.6587C235.61 19.9938 235.566 21.0073 236.807 22.4971C237.938 23.8485 239.158 25.1307 240.338 26.4413L240.228 26.9339C239.573 26.9054 238.857 27.0397 238.271 26.8158C234.044 25.208 229.508 27.3857 228.572 31.802C228.206 33.5442 227.279 34.2647 225.411 34.9281C225.216 34.5304 224.974 34.1574 224.691 33.8169C223.064 32.1399 222.132 32.1114 220.427 33.6378C219.142 34.7897 217.795 35.8806 216.615 37.1302C215.582 38.2292 214.435 38.4612 212.742 38.0908C214.663 36.3365 216.424 34.7165 218.198 33.1087C225.491 26.5092 232.787 19.9124 240.086 13.3184C242.189 11.4175 244.321 9.54103 246.412 7.61981C246.953 7.12729 247.38 6.95226 247.937 7.56689C250.838 10.7622 253.735 13.9371 256.668 17.1649Z" fill="#3C64B1"/>
<path d="M231.286 19.5705C229.951 20.3561 228.975 21.1539 227.852 21.5446C225.488 22.3587 224.081 23.9869 222.812 26.0913C221.803 27.7601 220.126 29.022 218.743 30.4588C218.707 30.4949 218.664 30.5232 218.616 30.5421C218.569 30.561 218.518 30.5701 218.467 30.5687C215.72 29.9663 214.98 32.2701 213.76 33.825C212.982 34.8223 212.327 35.9172 211.579 36.9389C210.883 37.8792 210.057 38.5671 208.507 38.0338L235.338 0L244.752 6.63883C244.195 7.79482 243.564 8.26698 242.514 7.34707C242.287 7.14762 241.998 7.01737 241.77 6.82199C240.684 5.88172 239.768 5.4991 238.442 6.72023C237.323 7.75004 235.688 7.78667 234.264 7.09063C233.251 6.59404 232.73 6.88305 232.156 7.74598C230.781 9.81374 229.309 11.8164 227.889 13.8516C226.839 15.3821 226.998 16.3589 228.454 17.5149C229.231 18.1418 230.065 18.6954 231.286 19.5705Z" fill="#3C64B1"/>
<path d="M180.615 95.9314C179.089 95.9314 177.568 95.9599 176.046 95.9314C174.342 95.8907 173.166 94.7632 173.17 93.2286C173.164 92.8701 173.23 92.514 173.365 92.1816C173.499 91.8492 173.699 91.5473 173.953 91.2939C174.206 91.0405 174.508 90.8408 174.841 90.7068C175.173 90.5728 175.529 90.5071 175.888 90.5137C179.036 90.4486 182.184 90.4486 185.33 90.5137C187.055 90.5503 188.178 91.7348 188.121 93.306C188.064 94.8772 186.933 95.9029 185.184 95.9355C183.658 95.9558 182.137 95.9355 180.615 95.9314Z" fill="#3C64B1"/>
<path d="M159.687 79.5478C160.595 79.5478 161.506 79.5112 162.413 79.5478C164.126 79.6333 165.115 80.6061 165.139 82.1651C165.163 83.7241 164.179 84.8068 162.503 84.8679C160.587 84.9371 158.666 84.9411 156.75 84.8679C155.123 84.8068 154.171 83.7689 154.15 82.2791C154.13 80.7893 155.172 79.6577 156.807 79.56C157.763 79.503 158.727 79.56 159.687 79.56V79.5478Z" fill="#3C64B1"/>
<path d="M173.19 79.5397C174.447 79.442 175.696 79.727 176.335 81.1435C176.884 82.3646 176.567 83.4351 175.59 84.2818C174.516 85.2139 171.656 85.1894 170.578 84.2533C170.112 83.8926 169.787 83.3804 169.658 82.8051C169.53 82.2298 169.606 81.6276 169.874 81.1028C170.363 79.9793 171.278 79.5438 173.19 79.5397Z" fill="#3C64B1"/>
<path d="M167.613 57.5148C169.696 57.5148 170.867 58.508 170.867 60.2339C170.867 61.9597 169.61 62.9325 167.539 62.9203C165.603 62.9203 164.378 61.8742 164.362 60.242C164.346 58.5202 165.538 57.5148 167.613 57.5148Z" fill="#3C64B1"/>
<path d="M249.52 67.8577C249.525 68.3255 249.437 68.7897 249.261 69.2231C249.085 69.6564 248.824 70.0501 248.493 70.3811C248.163 70.7121 247.77 70.9737 247.337 71.1506C246.904 71.3275 246.44 71.4161 245.972 71.4112C245.504 71.4112 245.041 71.319 244.609 71.1398C244.176 70.9606 243.783 70.6979 243.452 70.3668C243.121 70.0357 242.859 69.6426 242.68 69.21C242.501 68.7774 242.409 68.3138 242.409 67.8455C242.409 67.3773 242.501 66.9136 242.68 66.481C242.859 66.0484 243.121 65.6553 243.452 65.3242C243.783 64.9931 244.176 64.7305 244.609 64.5513C245.041 64.3721 245.504 64.2798 245.972 64.2798C246.441 64.2804 246.904 64.3735 247.336 64.5538C247.768 64.7342 248.16 64.9982 248.49 65.3307C248.82 65.6632 249.08 66.0576 249.257 66.4913C249.434 66.925 249.523 67.3894 249.52 67.8577Z" fill="white"/>
<path d="M0 42.2785V35.6943C0 28.0542 3.97856 24.2372 11.9357 24.2434C15.0215 24.1015 18.0546 24.9918 20.4298 26.7367C21.5007 27.6378 22.3363 28.7342 22.8783 29.9494C23.4203 31.1647 23.6556 32.4697 23.568 33.7734V34.069H17.3857V33.8197C17.4461 33.1696 17.3438 32.5157 17.0862 31.9044C16.8286 31.293 16.4219 30.7392 15.895 30.2819C15.3681 29.8247 14.7337 29.4752 14.0369 29.2584C13.34 29.0415 12.5977 28.9625 11.8624 29.0269C11.0481 28.9648 10.229 29.0805 9.4774 29.3639C8.72577 29.6474 8.06472 30.0898 7.55263 30.6522C6.65301 31.7326 6.20322 33.5149 6.20322 35.9805V42.1954C6.20322 44.5225 6.66348 46.2216 7.59448 47.2744C8.13079 47.8207 8.80492 48.2481 9.56257 48.5224C10.3202 48.7967 11.1402 48.9101 11.9566 48.8535C12.6903 48.8985 13.4266 48.8111 14.1208 48.5968C14.815 48.3825 15.4524 48.0457 15.9944 47.6069C16.4759 47.1499 16.8473 46.6115 17.0865 46.0242C17.3256 45.437 17.4274 44.813 17.3857 44.1901V43.8576H23.4738V44.1254C23.4738 47.2036 22.4278 49.5738 20.3356 51.236C18.2435 52.8983 15.3982 53.7232 11.7997 53.7109C3.93322 53.6924 0 49.8816 0 42.2785Z" fill="#3C64B1"/>
<path d="M28.4998 42.2587V35.682C28.4998 28.0506 32.2854 24.238 39.8565 24.2442C41.3534 24.1691 42.8517 24.3668 44.2652 24.8259C45.6787 25.285 46.9796 25.9963 48.0931 26.9191C50.0996 28.7086 51.1029 31.6295 51.1029 35.682V42.2587C51.1029 46.3111 50.0696 49.229 48.0029 51.0123C45.7108 52.8784 42.7133 53.8424 39.6559 53.6965C32.2118 53.6658 28.4931 49.8532 28.4998 42.2587ZM43.8895 47.2212C44.7623 46.1605 45.1937 44.454 45.1937 42.1757V35.9679C45.1937 33.5082 44.759 31.7402 43.8895 30.6641C43.3677 30.1513 42.737 29.7426 42.0364 29.4631C41.3357 29.1837 40.5801 29.0395 39.8163 29.0395C39.0526 29.0395 38.297 29.1837 37.5964 29.4631C36.8958 29.7426 36.265 30.1513 35.7432 30.6641C34.8938 31.7341 34.4691 33.5143 34.4691 36.0048V42.2126C34.4691 44.5617 34.8938 46.2588 35.7432 47.3042C36.2403 47.8509 36.8743 48.2784 37.5908 48.5499C38.3073 48.8214 39.0849 48.9289 39.8565 48.8631C40.6276 48.9063 41.3985 48.775 42.1016 48.4807C42.8047 48.1864 43.4186 47.7382 43.8895 47.1751V47.2212Z" fill="#3C64B1"/>
<path d="M79.6028 24.2286V53.711H73.6126L62.0072 35.2999V53.711H56.017V24.2286H62.0072L73.6126 42.6776V24.2286H79.6028Z" fill="#3C64B1"/>
<path d="M105.154 29.095H96.9514V53.711H90.7531V29.095H82.5507V24.2286H105.102L105.154 29.095Z" fill="#3C64B1"/>
<path d="M118.672 41.7454H114.15V53.711H108.102V24.2419H120.197C122.911 24.1105 125.574 24.959 127.626 26.6085C128.56 27.4327 129.291 28.4335 129.77 29.5427C130.248 30.6519 130.463 31.8434 130.399 33.0362C130.461 34.7691 129.955 36.4788 128.946 37.9399C127.933 39.3135 126.469 40.3491 124.771 40.8934L131.688 53.711H124.72L118.672 41.7454ZM114.15 37.0879H119.88C121.083 37.1541 122.267 36.7802 123.175 36.0466C123.586 35.6477 123.902 35.174 124.105 34.6558C124.307 34.1376 124.391 33.586 124.351 33.0362C124.375 32.5119 124.281 31.9888 124.075 31.4999C123.869 31.011 123.556 30.5671 123.154 30.1963C122.712 29.8259 122.195 29.5405 121.633 29.3569C121.071 29.1732 120.475 29.095 119.88 29.1266H114.15V37.0879Z" fill="#3C64B1"/>
<path d="M134.636 42.2587V35.682C134.636 28.0506 138.422 24.238 145.993 24.2442C147.49 24.1691 148.988 24.3668 150.402 24.8259C151.815 25.285 153.116 25.9963 154.229 26.9191C156.236 28.7086 157.239 31.6295 157.239 35.682V42.2587C157.239 46.3111 156.206 49.229 154.139 51.0123C151.847 52.8784 148.85 53.8424 145.792 53.6965C138.348 53.6658 134.629 49.8532 134.636 42.2587ZM150.016 47.2212C150.899 46.1605 151.33 44.454 151.33 42.1757V35.9679C151.33 33.5328 150.899 31.7618 150.016 30.6641C149.544 30.1091 148.932 29.6692 148.232 29.3829C147.532 29.0966 146.767 28.9728 146.003 29.0223C145.227 28.9578 144.445 29.0706 143.727 29.3506C143.01 29.6306 142.379 30.0691 141.89 30.6272C141.04 31.6972 140.615 33.4774 140.615 35.9679V42.1757C140.615 44.5247 141.04 46.222 141.89 47.2673C142.387 47.814 143.021 48.2415 143.737 48.513C144.454 48.7846 145.231 48.892 146.003 48.8262C146.767 48.8722 147.533 48.7458 148.232 48.4581C148.931 48.1703 149.544 47.7299 150.016 47.1751V47.2212Z" fill="#3C64B1"/>
<path d="M162.153 24.2286H168.101V48.8525H181.808V53.711H162.153V24.2286Z" fill="#3C64B1"/>
<path d="M184.756 47.8145H191.635V53.711H184.756V47.8145Z" fill="#3C64B1"/>
<path d="M0 84.2048V75.093C0 64.52 5.27146 59.2377 15.8144 59.2462C19.9033 59.0486 23.9225 60.2809 27.0689 62.6967C28.4902 63.9421 29.5989 65.4591 30.3171 67.1413C31.0354 68.8236 31.346 70.6302 31.227 72.4348V72.8437H23.0356V72.4987C23.0877 71.6152 22.9464 70.7311 22.6202 69.899C22.294 69.0669 21.7895 68.3038 21.1368 67.6552C20.415 67.0338 19.5634 66.5547 18.6339 66.2471C17.7045 65.9394 16.7169 65.8098 15.7313 65.8661C14.6503 65.7802 13.563 65.9403 12.5649 66.3325C11.5668 66.7247 10.6885 67.3369 10.007 68.1153C8.81504 69.6105 8.23296 72.077 8.23296 75.4891V84.0898C8.23296 87.3103 8.84275 89.6617 10.0763 91.1186C10.7826 91.8794 11.6752 92.4744 12.6802 92.8544C13.6851 93.2344 14.7738 93.3885 15.8561 93.3039C16.826 93.3659 17.7994 93.2449 18.7169 92.9482C19.6344 92.6516 20.4766 92.1856 21.1922 91.5787C21.8301 90.9463 22.3223 90.2012 22.6391 89.3885C22.956 88.5758 23.0909 87.7123 23.0356 86.8502V86.3902H31.1023V86.7608C31.1023 91.0206 29.7163 94.3008 26.9442 96.6011C24.1722 98.9014 20.4345 100.03 15.7313 99.9876C5.24374 99.9876 0 94.7267 0 84.2048Z" fill="#3C64B1"/>
<path d="M60.49 92.0662H45.41L42.7438 99.9103H33.9695L49.5574 59.2256H56.3567L72.0151 99.9887H63.1843L60.49 92.0662ZM58.2753 85.6079L52.9288 69.9851L47.667 85.6079H58.2753Z" fill="#3C64B1"/>
<path d="M90.7059 83.4445H84.4385V99.9887H76.0913V59.2434H92.8139C96.5662 59.0645 100.247 60.2373 103.085 62.5156C104.372 63.6579 105.379 65.0424 106.038 66.5756C106.697 68.1088 106.993 69.7549 106.905 71.4029C106.992 73.7988 106.291 76.1627 104.896 78.1829C103.502 80.0874 101.476 81.5207 99.1238 82.2666L108.702 99.9887H99.0673L90.7059 83.4445ZM84.4385 77.0049H92.3471C94.0152 77.0957 95.6554 76.579 96.9168 75.5651C97.4821 75.0118 97.9182 74.3566 98.1981 73.6406C98.478 72.9245 98.5957 72.1628 98.5437 71.4029C98.5751 70.677 98.443 69.9531 98.1556 69.2771C97.8682 68.6011 97.4318 67.9878 96.8743 67.4762C96.2635 66.9641 95.5487 66.5695 94.7714 66.3156C93.9941 66.0617 93.17 65.9535 92.3471 65.9973H84.4385V77.0049Z" fill="#3C64B1"/>
<path d="M112.778 59.248H128.944C131.13 59.1408 133.318 59.4185 135.383 60.0651C137.449 60.7117 139.351 61.7146 140.98 63.0164C143.919 65.5374 145.389 69.6677 145.389 75.4074V83.7293C145.389 89.4865 143.885 93.6299 140.877 96.1596C137.534 98.8114 133.15 100.18 128.679 99.9672H112.778V59.248ZM128.826 93.2679C129.942 93.3366 131.06 93.1629 132.084 92.7617C133.108 92.3606 134.008 91.744 134.705 90.965C135.998 89.421 136.659 87.0396 136.659 83.7031V75.8523C136.659 72.3849 136.013 69.8858 134.734 68.3287C134.045 67.5397 133.148 66.9144 132.123 66.5081C131.097 66.1018 129.975 65.9272 128.856 65.9997H121.508V93.2679H128.826Z" fill="#3C64B1"/>
<path d="M21.8531 76.0956C22.13 76.352 22.3453 76.6585 22.4853 76.9956C22.6254 77.3327 22.687 77.693 22.6662 78.0532C22.6837 78.4033 22.6203 78.7528 22.4802 79.0788C22.3401 79.4049 22.1264 79.7001 21.8531 79.9452C21.2402 80.443 20.4367 80.6974 19.6193 80.6523H17.9127V83.8794H16.1525V75.3831H19.6193C20.0245 75.361 20.4305 75.4126 20.8138 75.5349C21.1972 75.6572 21.5504 75.8478 21.8531 76.0956ZM20.5426 78.9296C20.668 78.8158 20.7654 78.6787 20.8281 78.5275C20.8908 78.3764 20.9173 78.2146 20.906 78.0532C20.9182 77.8825 20.8932 77.7112 20.8323 77.5495C20.7715 77.3877 20.676 77.2388 20.5515 77.1113C20.4169 76.9985 20.2589 76.9117 20.0871 76.8559C19.9152 76.8001 19.7328 76.7765 19.5508 76.7864H17.9246V79.2435H19.5508C19.9092 79.2576 20.2599 79.1452 20.5307 78.9296H20.5426Z" fill="#3C64B1"/>
<path d="M22.0251 82.1007H23.8786V83.9965H22.0251V82.1007Z" fill="#3C64B1"/>
<path d="M25.2205 75.3781H26.9207V83.8794H25.2205V75.3781Z" fill="#3C64B1"/>
</svg>
