<svg width="90" height="86" viewBox="0 0 90 86" fill="none" xmlns="http://www.w3.org/2000/svg">
<path d="M18.4656 51.5364C18.502 50.92 18.5531 50.4422 18.5567 49.9499C18.5567 46.7183 18.5567 43.4905 18.5567 40.2626C18.5786 37.3448 20.2336 35.6816 23.1354 35.678C42.5582 35.678 61.9786 35.678 81.3966 35.678C85.7128 35.678 88.6875 38.6906 88.6875 43.0018C88.7094 46.4047 88.6875 49.8076 88.6875 53.2142C80.1827 53.2142 71.7873 53.2142 63.3955 53.2142C60.614 53.2142 58.3502 54.188 56.7098 56.4967C53.4289 61.1069 56.3452 67.6647 61.9738 68.2884C62.2446 68.3248 62.5172 68.3467 62.7904 68.3541H88.5271C88.5271 68.3541 88.6364 68.4125 88.6364 68.4818C88.6547 72.1619 88.8515 75.8529 88.6364 79.5221C88.4031 83.3408 85.3045 85.9778 81.4768 85.9778C60.4646 85.9778 39.4523 85.9778 18.4401 85.9778C16.5991 85.9778 15.4144 85.0295 15.3998 83.5815C15.3852 82.1336 16.6101 81.105 18.5203 81.0941C20.292 81.0941 22.0673 81.0941 23.8389 81.0941C25.6106 81.0941 26.4855 80.2333 26.522 78.7015C26.5584 77.1696 25.5669 76.1192 23.8535 76.1119C18.5312 76.0864 13.2089 76.1119 7.88654 76.0937C5.8451 76.0937 4.69316 74.6967 5.23633 72.9533C5.64097 71.6549 6.65075 71.2902 7.89749 71.2938C12.4008 71.2938 16.9029 71.2938 21.4038 71.2938H35.0486C36.9333 71.2938 38.1582 70.32 38.1873 68.8173C38.2165 67.3146 36.9625 66.2642 35.0012 66.2642H12.0788C11.624 66.2813 11.1686 66.2691 10.7154 66.2277C10.1515 66.1493 9.63373 65.873 9.25447 65.4482C8.8752 65.0233 8.65909 64.4775 8.64464 63.908C8.63019 63.3386 8.81836 62.7825 9.17559 62.339C9.53282 61.8954 10.0359 61.5932 10.5951 61.4862C11.0453 61.4222 11.5005 61.4002 11.9548 61.4206C17.3209 61.4206 22.687 61.4206 28.0531 61.4206C29.7482 61.4206 30.8746 60.3993 30.8856 58.9441C30.8965 57.4888 29.7919 56.504 28.0822 56.4457C27.6265 56.4457 27.1709 56.4457 26.7152 56.4457H3.5084C3.0546 56.4609 2.60027 56.4451 2.14864 56.3983C0.741501 56.1977 -0.0386266 55.2421 0.00147315 53.878C0.0415729 52.5139 0.974813 51.6349 2.40382 51.613C4.90459 51.5765 7.40536 51.613 9.90612 51.613L18.4656 51.5364Z" fill="#3C64B1"/>
<path d="M74.7292 54.5891C78.7392 54.5891 82.7273 54.5891 86.7263 54.5891C88.6985 54.5891 89.2781 55.1508 89.2781 57.0729C89.2781 59.626 89.2781 62.1791 89.2781 64.7104C89.2781 66.3699 88.611 67.0556 86.9669 67.0592C78.9214 67.0592 70.876 67.1139 62.8305 67.0592C59.1851 67.0264 56.7171 64.342 56.75 60.7348C56.7828 57.1276 59.3017 54.6511 62.9982 54.611C64.9522 54.5891 66.9061 54.611 68.8601 54.611L74.7292 54.5891ZM66.4468 60.7895C66.4497 60.3708 66.37 59.9555 66.2122 59.5677C66.0545 59.1798 65.8218 58.8268 65.5276 58.529C65.2333 58.2312 64.8832 57.9944 64.4974 57.8322C64.1115 57.6699 63.6975 57.5855 63.2789 57.5835C62.432 57.5835 61.6197 57.9202 61.0208 58.5193C60.422 59.1185 60.0855 59.9312 60.0855 60.7786C60.0855 61.626 60.422 62.4386 61.0208 63.0378C61.6197 63.637 62.432 63.9736 63.2789 63.9736C63.6957 63.9765 64.109 63.8965 64.4946 63.7383C64.8803 63.58 65.2307 63.3467 65.5254 63.0518C65.8202 62.7569 66.0534 62.4063 66.2116 62.0205C66.3698 61.6346 66.4497 61.2211 66.4468 60.8041V60.7895Z" fill="#3C64B1"/>
<path d="M65.652 34.3466C65.2875 34.095 64.8573 33.909 64.624 33.5771C64.0275 32.6832 63.2193 31.9508 62.2713 31.4451C61.3234 30.9394 60.2652 30.676 59.191 30.6786C58.1167 30.6811 57.0597 30.9494 56.1142 31.4596C55.1686 31.9697 54.3639 32.7059 53.7716 33.6026C53.6257 33.7902 53.4418 33.9447 53.232 34.056C53.0221 34.1673 52.791 34.2328 52.554 34.2482C51.0776 34.1935 49.6085 33.9746 48.1284 33.8543C47.6846 33.8374 47.2401 33.8643 46.8015 33.9345C45.6568 34.0767 44.5195 34.2445 43.3785 34.4014L43.2509 33.9856L74.7 16.1576L85.166 34.6384C84.877 34.722 84.5801 34.7757 84.2802 34.7989C82.8001 34.6457 81.3237 34.4342 79.84 34.3138C78.5058 34.2226 78.1777 33.9053 78.6261 32.647C78.8643 31.9617 79.2529 31.3386 79.7635 30.8234C80.4051 30.2033 80.4926 29.6745 80.0515 28.9231C78.9578 27.0995 77.9043 25.2357 76.8544 23.3792C76.4899 22.7519 76.1253 22.5002 75.3306 22.6899C73.5918 23.102 72.0133 22.8212 70.8067 21.2747C70.5952 21.0012 69.7823 20.91 69.436 21.0851C67.2742 22.234 65.1489 23.4595 63.0455 24.7324C61.9993 25.3561 61.766 26.4466 62.4367 27.7232C63.3445 29.4483 64.3615 31.1188 65.3203 32.8294C65.5536 33.2379 65.7541 33.6646 65.9692 34.084L65.652 34.3466Z" fill="#3C64B1"/>
<path d="M72.8517 15.3805C71.9258 16.4127 71.2733 16.2631 70.5807 15.4133C69.775 14.4285 68.8746 13.524 68.0289 12.5648C67.5695 12.0359 67.1394 11.9375 66.5014 12.3387C64.9339 13.3234 63.3809 13.1593 61.9519 12.0323C61.3176 11.5326 60.8583 11.6201 60.286 12.1344C58.6164 13.6736 56.8921 15.1544 55.2443 16.7191C53.983 17.9154 53.9429 18.8235 55.0548 20.1585C56.0682 21.3694 57.1618 22.5183 58.219 23.6927L58.1206 24.134C57.5337 24.1085 56.8921 24.2288 56.3671 24.0282C52.5795 22.5875 48.5149 24.5388 47.6764 28.4962C47.3483 30.0572 46.5172 30.7028 44.8439 31.2973C44.6691 30.9409 44.4525 30.6067 44.1987 30.3016C42.7405 28.7989 41.9057 28.7734 40.3783 30.1411C39.2263 31.1733 38.0197 32.1508 36.9625 33.2705C36.0366 34.2552 35.0086 34.4631 33.4921 34.1312C35.2127 32.5592 36.7912 31.1076 38.3806 29.6669C44.9156 23.7535 51.4531 17.8424 57.993 11.9338C59.8777 10.2305 61.7879 8.54912 63.6616 6.8276C64.1465 6.38627 64.5292 6.22944 65.0287 6.78018C67.6278 9.64331 70.2234 12.4882 72.8517 15.3805Z" fill="#3C64B1"/>
<path d="M50.1079 17.5362C48.9122 18.2401 48.0373 18.955 47.0312 19.3051C44.9132 20.0346 43.6519 21.4935 42.5145 23.3792C41.6104 24.8745 40.1085 26.0052 38.8691 27.2927C38.8365 27.325 38.7978 27.3504 38.7552 27.3674C38.7126 27.3843 38.667 27.3924 38.6211 27.3912C36.1605 26.8514 35.497 28.9157 34.4034 30.309C33.7071 31.2026 33.1202 32.1837 32.4494 33.0992C31.8261 33.9417 31.0861 34.5581 29.6971 34.0803L53.7388 0L62.1743 5.94874C61.6749 6.98457 61.1098 7.40765 60.1693 6.58336C59.9652 6.40464 59.7063 6.28793 59.5022 6.11286C58.5288 5.27033 57.7086 4.92749 56.5202 6.02168C55.5177 6.94444 54.0523 6.97727 52.7764 6.35358C51.8686 5.90861 51.402 6.16757 50.888 6.9408C49.6559 8.79363 48.3362 10.5881 47.064 12.4117C46.1235 13.7831 46.2656 14.6585 47.5707 15.6943C48.267 16.256 49.0143 16.752 50.1079 17.5362Z" fill="#3C64B1"/>
<path d="M5.96926 85.9882C4.94902 85.9882 3.93151 86.0142 2.91399 85.9882C1.77404 85.951 0.98777 84.9222 0.99049 83.5219C0.986431 83.1948 1.03068 82.8698 1.12061 82.5665C1.21054 82.2632 1.3443 81.9877 1.51391 81.7565C1.68352 81.5253 1.88551 81.3431 2.10782 81.2208C2.33014 81.0985 2.56823 81.0385 2.80788 81.0446C4.91365 80.9851 7.01853 80.9851 9.12249 81.0446C10.276 81.078 11.0269 82.1588 10.9889 83.5925C10.9508 85.0262 10.1944 85.9622 9.02454 85.9919C8.0043 86.0104 6.98678 85.9919 5.96926 85.9882Z" fill="#3C64B1"/>
<path d="M3.55442 61.016C4.45163 60.9263 5.34303 61.1879 5.7989 62.4884C6.19088 63.6095 5.96441 64.5924 5.26755 65.3697C4.501 66.2255 2.45977 66.2031 1.69032 65.3435C1.35767 65.0124 1.12539 64.5421 1.03366 64.0139C0.941932 63.4857 0.996515 62.9329 1.18798 62.451C1.53642 61.4196 2.18973 61.0197 3.55442 61.016Z" fill="#3C64B1"/>
<path d="M66.4467 60.8041C66.4515 61.2233 66.3727 61.6392 66.2147 62.0275C66.0567 62.4158 65.8228 62.7686 65.5267 63.0652C65.2306 63.3618 64.8783 63.5962 64.4904 63.7547C64.1025 63.9132 63.6868 63.9926 63.2679 63.9882C62.8485 63.9882 62.4332 63.9056 62.0458 63.745C61.6583 63.5844 61.3063 63.3491 61.0098 63.0524C60.7132 62.7557 60.478 62.4035 60.3175 62.0159C60.1571 61.6282 60.0745 61.2128 60.0745 60.7932C60.0745 60.3736 60.1571 59.9581 60.3175 59.5705C60.478 59.1829 60.7132 58.8306 61.0098 58.5339C61.3063 58.2373 61.6583 58.0019 62.0458 57.8413C62.4332 57.6808 62.8485 57.5981 63.2679 57.5981C63.6873 57.5986 64.1025 57.682 64.4897 57.8436C64.8768 58.0052 65.2282 58.2418 65.5236 58.5398C65.819 58.8377 66.0526 59.1911 66.2111 59.5797C66.3695 59.9683 66.4495 60.3844 66.4467 60.8041Z" fill="white"/>
</svg>
