<svg width="710" height="460" viewBox="0 0 710 460" fill="none" xmlns="http://www.w3.org/2000/svg">
<path d="M631.407 411.381C631.407 411.381 633.051 424.737 630.431 425.353C629.418 425.585 599.239 425.285 599.239 425.285C599.239 425.285 599.239 421.674 604.177 420.878C609.116 420.082 617.807 417.125 619.278 410.586C620.749 404.047 631.407 411.381 631.407 411.381Z" fill="#131F2D"/>
<path d="M601.535 342.298C601.535 353.687 614.692 413.821 614.692 413.821C614.692 413.821 627.962 416.201 633.696 410.503C633.696 410.503 632.45 354.723 630.454 342.861C630.048 340.459 630.694 336.915 631.955 332.606C636.863 315.624 651.169 286.81 647.889 269.753C643.776 248.35 614.707 271.405 614.707 271.405C614.707 271.405 613.439 277.148 611.705 285.414C607.787 303.74 601.535 334.445 601.535 342.298Z" fill="#364154"/>
<path d="M611.668 285.414L631.932 332.606C636.841 315.624 651.146 286.81 647.866 269.753C643.753 248.35 614.685 271.405 614.685 271.405C614.685 271.405 613.424 277.148 611.668 285.414Z" fill="#131F2D"/>
<path d="M566.267 249.333C566.267 249.333 559.722 239.01 557.05 238.89C554.378 238.77 547.736 236.263 546.88 237.614C546.025 238.965 550.978 242.239 553.117 243.92C555.256 245.602 556.652 249.964 560.263 250.114C562.295 250.238 564.333 249.973 566.267 249.333V249.333Z" fill="#FF7955"/>
<path d="M612.125 174.964C612.125 174.964 598.165 215.79 591.748 223.538C585.331 231.285 562.829 242.727 562.634 243.755C562.169 246.18 564.03 249.979 566.132 249.994C573.637 249.994 588.783 244.341 595.801 237.614C603.239 230.489 615 189.777 615 189.777L612.125 174.964Z" fill="#364154"/>
<path d="M547.308 223.44C547.308 223.44 539.322 223.312 534.977 220.587C530.631 217.862 521.82 217.975 520.033 219.348C518.247 220.722 518.532 221.533 520.724 222.772C522.915 224.011 530.241 229.829 536.268 229.273C542.295 228.718 549.462 230.587 549.462 230.587L547.308 223.44Z" fill="#FF7955"/>
<path d="M705.163 399.422C705.163 399.422 710.642 404.497 709.569 408.108C708.496 411.719 703.565 414.114 702.889 418.536C702.214 422.958 699.549 425.353 697.147 425.353H685.679C685.679 425.353 683.908 422.245 688.186 421.314C692.464 420.383 694.07 415.195 693.807 410.383C693.693 406.625 693.826 402.863 694.205 399.122L703.324 397.042L705.163 399.422Z" fill="#131F2D"/>
<path d="M614.167 258.597C614.167 258.597 648.647 325.106 667.884 359.58C687.12 394.054 693.14 403.686 693.14 403.686C693.14 403.686 704.158 399.279 705.148 396.269C705.148 396.269 695.256 339.212 679.269 319.077C671.989 309.903 672.319 284.033 670.158 269.573C668.739 260.046 662.255 243.222 662.255 243.222L614.167 258.597Z" fill="#364154"/>
<path d="M600.537 160.325C598.391 162.897 596.735 165.841 595.651 169.011C607.615 168.185 622.468 151.887 622.468 151.887C622.468 151.887 613.792 149.484 607.675 139.875C607.36 139.387 607.059 138.884 606.767 138.373C605.77 136.61 604.929 134.764 604.252 132.855L600.71 139.079L594.81 149.424C596.008 152.213 597.371 154.928 598.893 157.555C599.396 158.395 599.937 159.334 600.537 160.325Z" fill="#FF7955"/>
<path d="M592.003 186.256C592.371 192.066 594.127 200.88 596.506 210.647C597.43 214.401 598.45 218.365 599.509 222.321C601.242 228.74 603.044 235.204 604.905 241.285L604.98 241.495C605.115 242.119 605.318 242.772 605.513 243.372C607.127 248.74 608.673 253.71 610.016 257.929C612.598 266 612.613 270.497 614.677 271.405C618.82 273.237 635.13 271.27 644.902 267.036C653.158 263.522 665.737 252.914 665.669 247.576C665.602 241.39 657.301 222.802 651.799 201.03C645.044 174.461 629.951 153.253 617.394 148.876C616.456 148.568 615.458 150.543 611.818 154.034C608.665 157.135 604.59 159.127 600.207 159.709L597.82 163.696C594.593 169.394 591.403 176.774 592.003 186.256Z" fill="#657285"/>
<path d="M596.507 210.647C597.43 214.401 598.451 218.365 599.509 222.321C601.243 228.74 603.044 235.204 604.905 241.285L604.98 241.495C605.115 242.118 605.318 242.772 605.513 243.372C607.127 248.74 608.673 253.71 610.017 257.929C636.128 224.746 621.32 185.009 621.32 185.009L596.507 210.647Z" fill="#364154"/>
<path d="M629.478 176.271C629.478 176.271 604.815 233.537 589.481 235.076C581.916 235.827 550.033 233.53 540.921 231.676C540.921 231.676 539.217 229.303 541.732 222.209C541.732 222.209 576.61 219.206 582.839 214.138C592.116 206.556 589.204 174.514 600.034 167.967C610.865 161.421 626.063 161.496 629.478 176.271Z" fill="#657285"/>
<path d="M594.818 149.424C596.013 152.213 597.374 154.928 598.893 157.555C606.226 152.157 607.479 143.493 607.675 139.935C607.727 138.921 607.675 138.32 607.675 138.32L606.744 138.426L600.694 139.116L594.818 149.424Z" fill="#EF6343"/>
<path d="M591.493 150.453C591.493 150.453 610.219 146.466 607.555 134.837C604.89 123.208 605.52 114.867 593.452 116.917C581.383 118.966 580.084 123.944 580.032 128.035C579.979 132.127 586.524 151.188 591.493 150.453Z" fill="#FF7955"/>
<path d="M607.712 135.64C607.712 135.64 601.58 121.076 584.633 125.01C573.029 127.705 576.069 115.918 576.76 113.974C576.76 113.974 585.766 112.285 595.096 110.791C614.662 107.668 608.755 132.705 607.712 135.64Z" fill="#131F2D"/>
<path d="M568.781 411.824V421.261C568.78 421.995 568.556 422.712 568.139 423.316C567.723 423.921 567.133 424.385 566.447 424.647C566.235 424.736 566.014 424.799 565.787 424.835C565.574 424.874 565.358 424.894 565.141 424.895H414.927C413.996 424.892 413.102 424.534 412.426 423.894C411.751 423.253 411.346 422.378 411.294 421.449V411.637C411.348 410.708 411.753 409.834 412.428 409.194C413.103 408.554 413.997 408.195 414.927 408.191H565.141C565.358 408.191 565.574 408.212 565.787 408.251C566.013 408.29 566.234 408.353 566.447 408.438C567.142 408.708 567.738 409.182 568.158 409.797C568.564 410.395 568.781 411.102 568.781 411.824V411.824Z" fill="#D8E5FF"/>
<path d="M495.018 424.895H414.537C413.658 424.843 412.833 424.457 412.231 423.817C411.628 423.176 411.293 422.329 411.294 421.449V411.637C411.294 410.757 411.63 409.911 412.233 409.271C412.835 408.631 413.659 408.244 414.537 408.191H485.133C486.259 413.108 488.886 419.91 495.018 424.895Z" fill="#365A9F"/>
<path d="M550.498 408.198H548.794V424.902H550.498V408.198Z" fill="#365A9F"/>
<path d="M544.719 408.198H543.015V424.902H544.719V408.198Z" fill="#365A9F"/>
<path d="M537.784 408.198H536.08V424.902H537.784V408.198Z" fill="#365A9F"/>
<path d="M527.163 408.198H525.46V424.902H527.163V408.198Z" fill="#365A9F"/>
<path d="M515.928 408.198H514.224V424.902H515.928V408.198Z" fill="#365A9F"/>
<path d="M498.71 408.198H497.007V424.902H498.71V408.198Z" fill="#365A9F"/>
<path d="M482.581 408.198H480.877V424.902H482.581V408.198Z" fill="#365A9F"/>
<path d="M468.186 408.198H466.482V424.902H468.186V408.198Z" fill="#365A9F"/>
<path d="M556 408.198H554.296V424.902H556V408.198Z" fill="#365A9F"/>
<path d="M559.632 408.198H557.929V424.902H559.632V408.198Z" fill="#365A9F"/>
<path d="M563.137 408.198H561.433V424.902H563.137V408.198Z" fill="#365A9F"/>
<path d="M565.787 408.251V424.82C565.574 424.859 565.358 424.879 565.141 424.88H564.075V408.191H565.141C565.358 408.191 565.574 408.212 565.787 408.251V408.251Z" fill="#365A9F"/>
<path d="M568.158 409.805V423.318C567.743 423.938 567.144 424.413 566.447 424.677V408.438C567.143 408.71 567.739 409.186 568.158 409.805V409.805Z" fill="#365A9F"/>
<path d="M529.483 230.084V239.513C529.486 240.239 529.269 240.949 528.86 241.548C528.443 242.163 527.849 242.637 527.156 242.907C526.94 242.992 526.717 243.055 526.488 243.095C526.278 243.133 526.064 243.154 525.85 243.155H375.628C374.698 243.15 373.804 242.79 373.13 242.148C372.456 241.506 372.053 240.631 372.003 239.701C372.003 239.641 372.003 239.581 372.003 239.513V230.084C372.003 230.024 372.003 229.956 372.003 229.896C372.053 228.968 372.456 228.093 373.13 227.452C373.804 226.811 374.698 226.453 375.628 226.451H525.85C526.064 226.449 526.277 226.467 526.488 226.503C526.716 226.546 526.939 226.609 527.156 226.691C527.851 226.961 528.445 227.438 528.86 228.057C529.269 228.654 529.486 229.361 529.483 230.084V230.084Z" fill="#D8E5FF"/>
<path d="M455.719 243.139H375.245C374.366 243.088 373.54 242.701 372.937 242.059C372.334 241.416 372 240.567 372.003 239.686C372.003 239.626 372.003 239.566 372.003 239.498V230.084C372.003 230.024 372.003 229.956 372.003 229.896C372 229.016 372.334 228.168 372.937 227.527C373.541 226.886 374.367 226.5 375.245 226.45H445.797C446.96 231.368 449.595 238.17 455.719 243.139Z" fill="#365A9F"/>
<path d="M511.199 226.45H509.496V243.155H511.199V226.45Z" fill="#365A9F"/>
<path d="M505.42 226.45H503.717V243.155H505.42V226.45Z" fill="#365A9F"/>
<path d="M498.493 226.45H496.789V243.155H498.493V226.45Z" fill="#365A9F"/>
<path d="M487.865 226.45H486.161V243.155H487.865V226.45Z" fill="#365A9F"/>
<path d="M476.637 226.45H474.933V243.155H476.637V226.45Z" fill="#365A9F"/>
<path d="M459.412 226.45H457.708V243.155H459.412V226.45Z" fill="#365A9F"/>
<path d="M443.29 226.45H441.586V243.155H443.29V226.45Z" fill="#365A9F"/>
<path d="M428.894 226.45H427.191V243.155H428.894V226.45Z" fill="#365A9F"/>
<path d="M516.701 226.45H514.997V243.155H516.701V226.45Z" fill="#365A9F"/>
<path d="M520.334 226.45H518.63V243.155H520.334V226.45Z" fill="#365A9F"/>
<path d="M523.846 226.45H522.142V243.155H523.846V226.45Z" fill="#365A9F"/>
<path d="M526.488 226.503V243.095C526.278 243.133 526.064 243.154 525.85 243.155H524.784V226.451H525.85C526.064 226.449 526.277 226.467 526.488 226.503V226.503Z" fill="#365A9F"/>
<path d="M528.86 228.057V241.57C528.443 242.186 527.849 242.66 527.156 242.929V226.713C527.848 226.977 528.442 227.446 528.86 228.057V228.057Z" fill="#365A9F"/>
<path d="M552.72 395.12V404.55C552.718 405.283 552.494 405.998 552.079 406.602C551.664 407.206 551.076 407.671 550.393 407.935C550.178 408.024 549.954 408.087 549.725 408.123C549.515 408.162 549.301 408.182 549.087 408.183H398.865C397.935 408.181 397.041 407.822 396.367 407.182C395.693 406.541 395.29 405.666 395.24 404.737C395.236 404.675 395.236 404.612 395.24 404.55V395.12C395.236 395.058 395.236 394.995 395.24 394.933C395.292 394.004 395.696 393.131 396.369 392.49C397.043 391.85 397.936 391.491 398.865 391.487H549.087H549.372H549.462H549.597H549.695C549.923 391.526 550.147 391.589 550.363 391.674L550.453 391.712H550.551L550.731 391.802L550.836 391.862L550.926 391.915L551.098 392.02L551.286 392.162L551.421 392.275L551.511 392.358C551.601 392.44 551.691 392.538 551.774 392.628L551.849 392.718L551.917 392.8L552.052 392.988C552.494 393.61 552.728 394.357 552.72 395.12Z" fill="#D8E5FF"/>
<path d="M478.956 408.191H398.475C397.597 408.139 396.773 407.753 396.172 407.112C395.57 406.471 395.237 405.624 395.24 404.745C395.236 404.682 395.236 404.62 395.24 404.557V395.12C395.236 395.058 395.236 394.995 395.24 394.933C395.237 394.053 395.57 393.206 396.172 392.565C396.773 391.925 397.597 391.538 398.475 391.487H469.071C469.071 391.622 469.131 391.764 469.169 391.9C470.347 396.779 472.997 403.341 478.956 408.191Z" fill="#365A9F"/>
<path d="M534.436 391.487H532.733V408.191H534.436V391.487Z" fill="#365A9F"/>
<path d="M528.657 391.487H526.953V408.191H528.657V391.487Z" fill="#365A9F"/>
<path d="M521.722 391.487H520.018V408.191H521.722V391.487Z" fill="#365A9F"/>
<path d="M511.102 391.487H509.398V408.191H511.102V391.487Z" fill="#365A9F"/>
<path d="M499.866 391.487H498.163V408.191H499.866V391.487Z" fill="#365A9F"/>
<path d="M482.649 391.487H480.945V408.191H482.649V391.487Z" fill="#365A9F"/>
<path d="M466.527 391.487H464.823V408.191H466.527V391.487Z" fill="#365A9F"/>
<path d="M452.124 391.487H450.42V408.191H452.124V391.487Z" fill="#365A9F"/>
<path d="M539.938 391.487H538.234V408.191H539.938V391.487Z" fill="#365A9F"/>
<path d="M543.57 391.487H541.867V408.191H543.57V391.487Z" fill="#365A9F"/>
<path d="M547.075 391.487H545.372V408.191H547.075V391.487Z" fill="#365A9F"/>
<path d="M549.725 391.547V408.131C549.515 408.17 549.301 408.19 549.087 408.191H548.014V391.487H549.087C549.301 391.488 549.515 391.508 549.725 391.547V391.547Z" fill="#365A9F"/>
<path d="M552.097 393.093V406.607C551.682 407.224 551.087 407.699 550.393 407.966V391.734C551.084 392.006 551.678 392.48 552.097 393.093V393.093Z" fill="#365A9F"/>
<path d="M560.48 378.829V388.266C560.48 388.989 560.263 389.695 559.857 390.293C559.441 390.909 558.846 391.382 558.154 391.652C557.939 391.741 557.715 391.804 557.486 391.84C557.275 391.879 557.062 391.899 556.848 391.9H406.626C405.723 391.897 404.853 391.559 404.185 390.951C403.517 390.344 403.097 389.51 403.008 388.611C403.005 388.559 403.005 388.506 403.008 388.454C403.005 388.391 403.005 388.329 403.008 388.266V378.829C403.005 378.767 403.005 378.704 403.008 378.642C403.058 377.713 403.462 376.838 404.136 376.197C404.81 375.557 405.703 375.198 406.633 375.196H556.848C557.062 375.197 557.275 375.217 557.486 375.256C557.715 375.292 557.939 375.355 558.154 375.443C558.837 375.708 559.425 376.173 559.84 376.777C560.255 377.381 560.478 378.096 560.48 378.829V378.829Z" fill="#D8E5FF"/>
<path d="M486.717 391.9H406.236C405.707 391.899 405.189 391.756 404.734 391.487C404.238 391.18 403.822 390.759 403.52 390.259C403.219 389.759 403.041 389.194 403.001 388.611C402.997 388.559 402.997 388.506 403.001 388.454C402.997 388.391 402.997 388.329 403.001 388.266V378.829C402.997 378.767 402.997 378.704 403.001 378.642C402.997 377.762 403.331 376.915 403.932 376.274C404.534 375.634 405.358 375.248 406.236 375.196H476.832C477.928 379.978 480.442 386.547 486.221 391.487L486.717 391.9Z" fill="#365A9F"/>
<path d="M542.197 375.195H540.493V391.9H542.197V375.195Z" fill="#365A9F"/>
<path d="M536.418 375.195H534.714V391.9H536.418V375.195Z" fill="#365A9F"/>
<path d="M529.483 375.195H527.779V391.9H529.483V375.195Z" fill="#365A9F"/>
<path d="M518.863 375.195H517.159V391.9H518.863V375.195Z" fill="#365A9F"/>
<path d="M507.627 375.195H505.923V391.9H507.627V375.195Z" fill="#365A9F"/>
<path d="M490.409 375.195H488.706V391.9H490.409V375.195Z" fill="#365A9F"/>
<path d="M474.287 375.195H472.584V391.9H474.287V375.195Z" fill="#365A9F"/>
<path d="M459.885 375.195H458.181V391.9H459.885V375.195Z" fill="#365A9F"/>
<path d="M547.699 375.195H545.995V391.9H547.699V375.195Z" fill="#365A9F"/>
<path d="M551.331 375.195H549.628V391.9H551.331V375.195Z" fill="#365A9F"/>
<path d="M554.844 375.195H553.14V391.9H554.844V375.195Z" fill="#365A9F"/>
<path d="M557.486 375.271V391.855C557.275 391.894 557.062 391.914 556.848 391.915H555.782V375.196H556.848C557.062 375.202 557.276 375.227 557.486 375.271V375.271Z" fill="#365A9F"/>
<path d="M559.858 376.772V390.285C559.441 390.901 558.846 391.375 558.154 391.644V375.443C558.845 375.7 559.44 376.164 559.858 376.772Z" fill="#365A9F"/>
<path d="M564.075 362.125V371.562C564.079 372.285 563.861 372.992 563.453 373.589C563.036 374.204 562.441 374.678 561.749 374.948C561.537 375.036 561.315 375.099 561.088 375.135C560.875 375.174 560.659 375.195 560.443 375.196H410.228C409.298 375.193 408.403 374.835 407.728 374.194C407.053 373.554 406.648 372.679 406.596 371.75V361.937C406.642 361.082 406.988 360.27 407.573 359.645C408.157 359.019 408.943 358.618 409.793 358.514C409.938 358.506 410.083 358.506 410.228 358.514H560.443C560.659 358.515 560.875 358.535 561.088 358.574C561.315 358.61 561.537 358.673 561.749 358.762C562.443 359.029 563.038 359.503 563.453 360.121C563.857 360.711 564.074 361.409 564.075 362.125V362.125Z" fill="#D8E5FF"/>
<path d="M490.312 375.196H409.861C408.983 375.142 408.159 374.756 407.557 374.115C406.954 373.475 406.618 372.629 406.618 371.75V361.937C406.625 361.124 406.914 360.338 407.435 359.714C407.957 359.089 408.679 358.665 409.478 358.514C409.605 358.506 409.733 358.506 409.861 358.514H480.412C481.568 363.431 484.165 370.218 490.312 375.196Z" fill="#365A9F"/>
<path d="M545.792 358.492H544.088V375.196H545.792V358.492Z" fill="#365A9F"/>
<path d="M540.013 358.492H538.309V375.196H540.013V358.492Z" fill="#365A9F"/>
<path d="M533.085 358.492H531.382V375.196H533.085V358.492Z" fill="#365A9F"/>
<path d="M522.458 358.492H520.754V375.196H522.458V358.492Z" fill="#365A9F"/>
<path d="M511.23 358.492H509.526V375.196H511.23V358.492Z" fill="#365A9F"/>
<path d="M494.004 358.492H492.301V375.196H494.004V358.492Z" fill="#365A9F"/>
<path d="M477.883 358.492H476.179V375.196H477.883V358.492Z" fill="#365A9F"/>
<path d="M463.487 358.492H461.783V375.196H463.487V358.492Z" fill="#365A9F"/>
<path d="M551.294 358.492H549.59V375.196H551.294V358.492Z" fill="#365A9F"/>
<path d="M554.926 358.492H553.222V375.196H554.926V358.492Z" fill="#365A9F"/>
<path d="M558.439 358.492H556.735V375.196H558.439V358.492Z" fill="#365A9F"/>
<path d="M561.088 358.552V375.136C560.875 375.175 560.659 375.195 560.443 375.196H559.377V358.492H560.443C560.659 358.493 560.875 358.513 561.088 358.552Z" fill="#365A9F"/>
<path d="M563.452 360.098V373.611C563.035 374.227 562.441 374.701 561.749 374.97V358.754C562.442 359.015 563.037 359.484 563.452 360.098V360.098Z" fill="#365A9F"/>
<path d="M553.035 345.451V354.88C553.035 355.615 552.812 356.332 552.397 356.937C551.982 357.543 551.393 358.009 550.708 358.274C550.491 358.356 550.268 358.418 550.04 358.461H549.83H549.71H399.18C398.251 358.459 397.357 358.101 396.683 357.46C396.009 356.819 395.605 355.944 395.555 355.016C395.551 354.953 395.551 354.89 395.555 354.828V345.451C395.551 345.389 395.551 345.326 395.555 345.263C395.552 345.211 395.552 345.158 395.555 345.106C395.628 344.36 395.929 343.654 396.416 343.085C396.904 342.516 397.554 342.11 398.28 341.923H398.392C398.638 341.864 398.89 341.834 399.143 341.832H549.402H549.725H549.868H550.033C550.26 341.876 550.484 341.938 550.701 342.02C551.385 342.285 551.974 342.751 552.389 343.357C552.805 343.962 553.027 344.679 553.027 345.413L553.035 345.451Z" fill="#D8E5FF"/>
<path d="M479.271 358.514H398.79C397.913 358.462 397.088 358.076 396.487 357.435C395.885 356.794 395.552 355.947 395.555 355.068C395.551 355.006 395.551 354.943 395.555 354.88V345.451C395.551 345.389 395.551 345.326 395.555 345.263C395.552 345.211 395.552 345.158 395.555 345.106C395.595 344.378 395.857 343.68 396.307 343.106C396.757 342.533 397.372 342.112 398.07 341.9H398.212C398.4 341.861 398.591 341.841 398.783 341.84H469.379C469.375 341.88 469.375 341.92 469.379 341.96C470.52 346.862 473.132 353.574 479.196 358.522L479.271 358.514Z" fill="#365A9F"/>
<path d="M534.751 341.818H533.048V358.522H534.751V341.818Z" fill="#365A9F"/>
<path d="M528.972 341.818H527.269V358.522H528.972V341.818Z" fill="#365A9F"/>
<path d="M522.037 341.818H520.334V358.522H522.037V341.818Z" fill="#365A9F"/>
<path d="M511.417 341.818H509.713V358.522H511.417V341.818Z" fill="#365A9F"/>
<path d="M500.181 341.818H498.478V358.522H500.181V341.818Z" fill="#365A9F"/>
<path d="M482.964 341.818H481.26V358.522H482.964V341.818Z" fill="#365A9F"/>
<path d="M466.842 341.818H465.138V358.522H466.842V341.818Z" fill="#365A9F"/>
<path d="M452.439 341.818H450.735V358.522H452.439V341.818Z" fill="#365A9F"/>
<path d="M540.253 341.818H538.549V358.522H540.253V341.818Z" fill="#365A9F"/>
<path d="M543.886 341.818H542.182V358.522H543.886V341.818Z" fill="#365A9F"/>
<path d="M547.391 341.818H545.687V358.522H547.391V341.818Z" fill="#365A9F"/>
<path d="M550.04 341.87V358.461C549.83 358.498 549.616 358.515 549.402 358.514H548.336V341.81H549.402C549.616 341.811 549.83 341.831 550.04 341.87Z" fill="#365A9F"/>
<path d="M552.412 343.417V356.93C551.998 357.549 551.403 358.026 550.708 358.296V342.08C551.398 342.344 551.992 342.81 552.412 343.417V343.417Z" fill="#365A9F"/>
<path d="M552.72 328.86V338.296C552.72 339.019 552.503 339.725 552.097 340.323C551.681 340.941 551.086 341.418 550.393 341.69C550.223 341.75 550.051 341.8 549.875 341.84H549.732C549.523 341.883 549.309 341.903 549.095 341.9H398.865C398.71 341.911 398.555 341.911 398.4 341.9H398.22C397.41 341.758 396.673 341.347 396.127 340.732C395.582 340.117 395.261 339.335 395.217 338.514C395.214 338.452 395.214 338.389 395.217 338.326V328.86C395.214 328.8 395.214 328.739 395.217 328.679C395.267 327.75 395.67 326.874 396.344 326.232C397.018 325.59 397.912 325.23 398.843 325.226H549.087H549.372H549.462H549.597H549.695C549.923 325.266 550.147 325.328 550.363 325.414L550.453 325.451H550.551L550.731 325.541L550.926 325.654L551.098 325.766L551.286 325.902L551.421 326.014L551.511 326.097L551.774 326.367L551.849 326.457L551.917 326.54L552.052 326.727C552.494 327.35 552.728 328.096 552.72 328.86V328.86Z" fill="#D8E5FF"/>
<path d="M478.956 341.93H398.287C398.217 341.937 398.147 341.937 398.077 341.93C397.281 341.778 396.563 341.355 396.046 340.731C395.528 340.108 395.243 339.324 395.24 338.514C395.236 338.452 395.236 338.389 395.24 338.326V328.86C395.236 328.8 395.236 328.739 395.24 328.679C395.235 327.799 395.567 326.95 396.169 326.307C396.771 325.665 397.596 325.278 398.475 325.226H469.071C469.071 325.361 469.131 325.504 469.169 325.639C470.34 330.481 472.922 336.975 478.806 341.81L478.956 341.93Z" fill="#365A9F"/>
<path d="M534.436 325.233H532.733V341.938H534.436V325.233Z" fill="#365A9F"/>
<path d="M528.657 325.233H526.953V341.938H528.657V325.233Z" fill="#365A9F"/>
<path d="M521.722 325.233H520.018V341.938H521.722V325.233Z" fill="#365A9F"/>
<path d="M511.102 325.233H509.398V341.938H511.102V325.233Z" fill="#365A9F"/>
<path d="M499.866 325.233H498.163V341.938H499.866V325.233Z" fill="#365A9F"/>
<path d="M482.649 325.233H480.945V341.938H482.649V325.233Z" fill="#365A9F"/>
<path d="M466.527 325.233H464.823V341.938H466.527V325.233Z" fill="#365A9F"/>
<path d="M452.124 325.233H450.42V341.938H452.124V325.233Z" fill="#365A9F"/>
<path d="M539.938 325.233H538.234V341.938H539.938V325.233Z" fill="#365A9F"/>
<path d="M543.57 325.233H541.867V341.938H543.57V325.233Z" fill="#365A9F"/>
<path d="M547.075 325.233H545.372V341.938H547.075V325.233Z" fill="#365A9F"/>
<path d="M549.725 325.286V341.87C549.515 341.913 549.301 341.933 549.087 341.93H548.014V325.226H549.087C549.301 325.227 549.515 325.247 549.725 325.286V325.286Z" fill="#365A9F"/>
<path d="M552.097 326.833V340.346C551.68 340.964 551.086 341.44 550.393 341.712V325.496C551.081 325.762 551.675 326.227 552.097 326.833V326.833Z" fill="#365A9F"/>
<path d="M560.48 312.568V322.005C560.48 322.728 560.263 323.434 559.857 324.032C559.445 324.652 558.849 325.127 558.154 325.391C557.939 325.48 557.715 325.543 557.486 325.579C557.275 325.618 557.062 325.638 556.848 325.639H406.626C405.723 325.636 404.853 325.298 404.185 324.691C403.517 324.083 403.097 323.249 403.008 322.351C403.005 322.298 403.005 322.245 403.008 322.193C403.005 322.13 403.005 322.068 403.008 322.005V312.568C403.005 312.506 403.005 312.443 403.008 312.381C403.06 311.452 403.464 310.579 404.138 309.939C404.811 309.298 405.704 308.939 406.633 308.935H556.848C557.062 308.936 557.275 308.956 557.486 308.995C557.714 309.034 557.938 309.097 558.154 309.183C558.846 309.452 559.441 309.926 559.857 310.541C560.263 311.14 560.48 311.846 560.48 312.568V312.568Z" fill="#D8E5FF"/>
<path d="M486.717 325.639H406.236C405.707 325.638 405.189 325.495 404.734 325.226C404.238 324.919 403.822 324.498 403.52 323.998C403.219 323.498 403.041 322.933 403.001 322.351C402.997 322.298 402.997 322.245 403.001 322.193C402.997 322.13 402.997 322.068 403.001 322.005V312.568C402.997 312.506 402.997 312.443 403.001 312.381C402.997 311.502 403.331 310.654 403.932 310.014C404.534 309.373 405.358 308.987 406.236 308.935H476.832C477.928 313.717 480.442 320.286 486.221 325.226L486.717 325.639Z" fill="#365A9F"/>
<path d="M542.197 308.942H540.493V325.646H542.197V308.942Z" fill="#365A9F"/>
<path d="M536.418 308.942H534.714V325.646H536.418V308.942Z" fill="#365A9F"/>
<path d="M529.483 308.942H527.779V325.646H529.483V308.942Z" fill="#365A9F"/>
<path d="M518.863 308.942H517.159V325.646H518.863V308.942Z" fill="#365A9F"/>
<path d="M507.627 308.942H505.923V325.646H507.627V308.942Z" fill="#365A9F"/>
<path d="M490.409 308.942H488.706V325.646H490.409V308.942Z" fill="#365A9F"/>
<path d="M474.287 308.942H472.584V325.646H474.287V308.942Z" fill="#365A9F"/>
<path d="M459.885 308.942H458.181V325.646H459.885V308.942Z" fill="#365A9F"/>
<path d="M547.699 308.942H545.995V325.646H547.699V308.942Z" fill="#365A9F"/>
<path d="M551.331 308.942H549.628V325.646H551.331V308.942Z" fill="#365A9F"/>
<path d="M554.844 308.942H553.14V325.646H554.844V308.942Z" fill="#365A9F"/>
<path d="M557.486 308.995V325.579C557.275 325.618 557.062 325.638 556.848 325.639H555.782V308.935H556.848C557.062 308.936 557.275 308.956 557.486 308.995V308.995Z" fill="#365A9F"/>
<path d="M559.858 310.541V324.055C559.445 324.674 558.849 325.149 558.154 325.414V309.205C558.843 309.469 559.437 309.934 559.858 310.541Z" fill="#365A9F"/>
<path d="M572.729 295.864V305.301C572.728 306.035 572.504 306.752 572.087 307.356C571.67 307.961 571.08 308.425 570.395 308.687C570.183 308.776 569.961 308.839 569.734 308.875C569.521 308.914 569.305 308.934 569.089 308.935H418.905C417.974 308.933 417.079 308.574 416.404 307.934C415.729 307.293 415.324 306.419 415.272 305.489V295.692C415.319 294.836 415.666 294.025 416.252 293.4C416.838 292.775 417.626 292.377 418.477 292.276C418.619 292.264 418.762 292.264 418.905 292.276H569.119C569.335 292.277 569.551 292.297 569.764 292.336C569.991 292.372 570.213 292.435 570.425 292.524C571.117 292.797 571.713 293.27 572.136 293.883C572.523 294.471 572.729 295.16 572.729 295.864V295.864Z" fill="#D8E5FF"/>
<path d="M498.988 308.935H418.514C417.636 308.883 416.811 308.497 416.208 307.857C415.605 307.216 415.27 306.369 415.272 305.489V295.692C415.278 294.879 415.566 294.093 416.088 293.47C416.61 292.846 417.332 292.424 418.132 292.276C418.259 292.264 418.387 292.264 418.514 292.276H489.111C490.244 297.193 492.871 303.95 498.988 308.935Z" fill="#365A9F"/>
<path d="M554.468 292.231H552.765V308.935H554.468V292.231Z" fill="#365A9F"/>
<path d="M548.689 292.231H546.985V308.935H548.689V292.231Z" fill="#365A9F"/>
<path d="M541.762 292.231H540.058V308.935H541.762V292.231Z" fill="#365A9F"/>
<path d="M531.141 292.231H529.438V308.935H531.141V292.231Z" fill="#365A9F"/>
<path d="M519.906 292.231H518.202V308.935H519.906V292.231Z" fill="#365A9F"/>
<path d="M502.688 292.231H500.984V308.935H502.688V292.231Z" fill="#365A9F"/>
<path d="M486.559 292.231H484.855V308.935H486.559V292.231Z" fill="#365A9F"/>
<path d="M472.164 292.231H470.46V308.935H472.164V292.231Z" fill="#365A9F"/>
<path d="M559.97 292.231H558.266V308.935H559.97V292.231Z" fill="#365A9F"/>
<path d="M563.61 292.231H561.906V308.935H563.61V292.231Z" fill="#365A9F"/>
<path d="M567.115 292.231H565.411V308.935H567.115V292.231Z" fill="#365A9F"/>
<path d="M569.765 292.291V308.875C569.552 308.914 569.336 308.934 569.119 308.935H568.053V292.231H569.119C569.336 292.231 569.552 292.251 569.765 292.291V292.291Z" fill="#365A9F"/>
<path d="M572.136 293.837V307.351C571.719 307.969 571.122 308.444 570.425 308.71V292.479C571.118 292.752 571.713 293.225 572.136 293.837V293.837Z" fill="#365A9F"/>
<path d="M553.035 279.175V288.605C553.035 289.339 552.812 290.056 552.397 290.662C551.982 291.267 551.393 291.733 550.708 291.998C550.491 292.08 550.268 292.143 550.04 292.186H549.83H549.658H399.18C398.25 292.181 397.356 291.821 396.682 291.179C396.008 290.537 395.605 289.662 395.555 288.732C395.551 288.67 395.551 288.607 395.555 288.545V279.175C395.552 279.113 395.552 279.05 395.555 278.988C395.605 278.059 396.009 277.184 396.683 276.543C397.357 275.903 398.251 275.544 399.18 275.542H549.59C549.741 275.551 549.891 275.569 550.04 275.594C550.268 275.637 550.491 275.7 550.708 275.782L551.024 275.925L551.211 276.022L551.399 276.135L551.556 276.255C551.685 276.35 551.806 276.455 551.917 276.57L552.022 276.675L552.082 276.743L552.194 276.87L552.337 277.066C552.783 277.679 553.027 278.417 553.035 279.175V279.175Z" fill="#D8E5FF"/>
<path d="M479.271 292.261H398.79C397.911 292.209 397.086 291.822 396.484 291.179C395.882 290.537 395.55 289.688 395.555 288.807C395.551 288.745 395.551 288.682 395.555 288.62V279.175C395.552 279.113 395.552 279.05 395.555 278.988C395.552 278.108 395.885 277.261 396.487 276.62C397.088 275.98 397.913 275.593 398.79 275.542H469.387C469.387 275.662 469.447 275.797 469.477 275.925C470.647 280.797 473.289 287.358 479.234 292.216L479.271 292.261Z" fill="#365A9F"/>
<path d="M534.751 275.557H533.048V292.261H534.751V275.557Z" fill="#365A9F"/>
<path d="M528.972 275.557H527.269V292.261H528.972V275.557Z" fill="#365A9F"/>
<path d="M522.037 275.557H520.334V292.261H522.037V275.557Z" fill="#365A9F"/>
<path d="M511.417 275.557H509.713V292.261H511.417V275.557Z" fill="#365A9F"/>
<path d="M500.181 275.557H498.478V292.261H500.181V275.557Z" fill="#365A9F"/>
<path d="M482.964 275.557H481.26V292.261H482.964V275.557Z" fill="#365A9F"/>
<path d="M466.842 275.557H465.138V292.261H466.842V275.557Z" fill="#365A9F"/>
<path d="M452.439 275.557H450.735V292.261H452.439V275.557Z" fill="#365A9F"/>
<path d="M540.253 275.557H538.549V292.261H540.253V275.557Z" fill="#365A9F"/>
<path d="M543.886 275.557H542.182V292.261H543.886V275.557Z" fill="#365A9F"/>
<path d="M547.391 275.557H545.687V292.261H547.391V275.557Z" fill="#365A9F"/>
<path d="M550.04 275.609V292.201C549.83 292.24 549.616 292.26 549.402 292.261H548.336V275.557H549.402C549.616 275.555 549.83 275.573 550.04 275.609V275.609Z" fill="#365A9F"/>
<path d="M552.412 277.156V290.669C551.995 291.284 551.401 291.758 550.708 292.028V275.797C551.401 276.066 551.995 276.54 552.412 277.156Z" fill="#365A9F"/>
<path d="M564.075 262.869V272.306C564.079 273.029 563.861 273.736 563.452 274.333C563.036 274.948 562.441 275.422 561.749 275.692C561.537 275.78 561.315 275.843 561.088 275.879C560.875 275.918 560.659 275.939 560.443 275.94H410.228C409.321 275.941 408.445 275.603 407.774 274.992C407.104 274.381 406.686 273.54 406.603 272.636C406.603 272.591 406.603 272.539 406.603 272.494V262.659C406.65 261.804 406.995 260.992 407.58 260.366C408.165 259.74 408.951 259.34 409.801 259.235C409.946 259.228 410.091 259.228 410.236 259.235H560.443C560.659 259.237 560.875 259.257 561.088 259.296C561.315 259.332 561.537 259.395 561.749 259.483C562.432 259.748 563.02 260.212 563.435 260.817C563.85 261.421 564.073 262.136 564.075 262.869V262.869Z" fill="#D8E5FF"/>
<path d="M490.312 275.94H409.861C409.353 275.936 408.855 275.805 408.412 275.557C407.901 275.25 407.472 274.824 407.161 274.316C406.85 273.807 406.666 273.231 406.626 272.636C406.626 272.591 406.626 272.539 406.626 272.494V262.659C406.633 261.845 406.921 261.059 407.443 260.435C407.964 259.811 408.686 259.387 409.485 259.236C409.613 259.228 409.741 259.228 409.868 259.236H480.412C481.515 264.025 484.037 270.594 489.831 275.534L490.312 275.94Z" fill="#365A9F"/>
<path d="M545.792 259.235H544.088V275.94H545.792V259.235Z" fill="#365A9F"/>
<path d="M540.013 259.235H538.309V275.94H540.013V259.235Z" fill="#365A9F"/>
<path d="M533.085 259.235H531.382V275.94H533.085V259.235Z" fill="#365A9F"/>
<path d="M522.458 259.235H520.754V275.94H522.458V259.235Z" fill="#365A9F"/>
<path d="M511.23 259.235H509.526V275.94H511.23V259.235Z" fill="#365A9F"/>
<path d="M494.004 259.235H492.301V275.94H494.004V259.235Z" fill="#365A9F"/>
<path d="M477.883 259.235H476.179V275.94H477.883V259.235Z" fill="#365A9F"/>
<path d="M463.487 259.235H461.783V275.94H463.487V259.235Z" fill="#365A9F"/>
<path d="M551.294 259.235H549.59V275.94H551.294V259.235Z" fill="#365A9F"/>
<path d="M554.926 259.235H553.222V275.94H554.926V259.235Z" fill="#365A9F"/>
<path d="M558.439 259.235H556.735V275.94H558.439V259.235Z" fill="#365A9F"/>
<path d="M561.088 259.296V275.879C560.875 275.918 560.659 275.939 560.443 275.94H559.377V259.235H560.443C560.659 259.236 560.875 259.257 561.088 259.296Z" fill="#365A9F"/>
<path d="M563.452 260.842V274.356C563.035 274.971 562.441 275.445 561.749 275.714V259.483C562.444 259.748 563.04 260.223 563.452 260.842Z" fill="#365A9F"/>
<path d="M553.035 246.195V255.624C553.035 256.359 552.812 257.076 552.397 257.681C551.982 258.287 551.393 258.753 550.708 259.018C550.491 259.1 550.268 259.162 550.04 259.206H549.83H549.71H399.18C398.251 259.203 397.357 258.845 396.683 258.204C396.009 257.563 395.605 256.688 395.555 255.76C395.552 255.697 395.552 255.634 395.555 255.572V246.195C395.551 246.133 395.551 246.07 395.555 246.007C395.605 245.078 396.008 244.202 396.682 243.56C397.356 242.918 398.25 242.558 399.18 242.554H549.402C549.616 242.555 549.83 242.575 550.04 242.614C550.268 242.657 550.491 242.72 550.708 242.802C551.393 243.067 551.982 243.533 552.397 244.138C552.812 244.744 553.035 245.461 553.035 246.195V246.195Z" fill="#D8E5FF"/>
<path d="M479.271 259.258H398.79C397.913 259.206 397.088 258.82 396.487 258.179C395.885 257.538 395.552 256.691 395.555 255.812C395.552 255.75 395.552 255.687 395.555 255.624V246.195C395.551 246.133 395.551 246.07 395.555 246.007C395.55 245.127 395.882 244.278 396.484 243.635C397.086 242.993 397.911 242.606 398.79 242.554H469.387C470.512 247.464 473.139 254.251 479.234 259.236L479.271 259.258Z" fill="#365A9F"/>
<path d="M534.751 242.561H533.048V259.265H534.751V242.561Z" fill="#365A9F"/>
<path d="M528.972 242.561H527.269V259.265H528.972V242.561Z" fill="#365A9F"/>
<path d="M522.037 242.561H520.334V259.265H522.037V242.561Z" fill="#365A9F"/>
<path d="M511.417 242.561H509.713V259.265H511.417V242.561Z" fill="#365A9F"/>
<path d="M500.181 242.561H498.478V259.265H500.181V242.561Z" fill="#365A9F"/>
<path d="M482.964 242.561H481.26V259.265H482.964V242.561Z" fill="#365A9F"/>
<path d="M466.842 242.561H465.138V259.265H466.842V242.561Z" fill="#365A9F"/>
<path d="M452.446 242.561H450.735V259.265H452.446V242.561Z" fill="#365A9F"/>
<path d="M540.253 242.561H538.549V259.265H540.253V242.561Z" fill="#365A9F"/>
<path d="M543.886 242.561H542.182V259.265H543.886V242.561Z" fill="#365A9F"/>
<path d="M547.391 242.561H545.687V259.265H547.391V242.561Z" fill="#365A9F"/>
<path d="M550.04 242.614V259.206C549.83 259.242 549.616 259.259 549.402 259.258H548.336V242.554H549.402C549.616 242.555 549.83 242.575 550.04 242.614V242.614Z" fill="#365A9F"/>
<path d="M552.412 244.16V257.674C551.998 258.293 551.403 258.77 550.708 259.04V242.824C551.398 243.088 551.992 243.553 552.412 244.16Z" fill="#365A9F"/>
<path d="M359.754 248.785L373.759 415.36C373.759 415.36 375.26 425.458 367.755 425.473C355.409 425.473 306.3 425.473 306.3 425.473C306.3 425.473 315.592 423.371 315.479 418.641C315.352 413.071 299.11 247.208 299.11 247.208L359.754 248.785Z" fill="#657285"/>
<path d="M302.285 422.455C304.709 422.455 351.611 422.605 363.634 422.455C368.888 422.387 369.789 417.793 369.834 414.82C369.851 413.991 369.798 413.162 369.676 412.342L369.309 408.011L368.385 396.975L367.567 387.215L366.509 374.692L365.623 364.114L355.671 245.76L295.027 244.183C295.027 244.183 301.865 313.597 306.698 364.122C307.238 369.753 307.756 375.15 308.199 380.188C308.349 381.805 308.497 383.376 308.642 384.903C309.092 389.685 309.505 394.077 309.858 397.951C310.045 399.993 310.218 401.892 310.376 403.626C310.999 410.443 311.359 414.797 311.359 415.638C311.365 416.089 311.328 416.539 311.246 416.982C310.248 422.282 303.193 422.455 302.285 422.455Z" fill="#B8C1C9"/>
<path d="M215.792 158.14H507.109L472.989 295.211L468.321 313.987L452.432 377.831H157.227L215.792 158.14Z" fill="#B8C1C9"/>
<path d="M507.109 158.14L511.837 159.717L458.714 382.598L452.432 377.831L507.109 158.14Z" fill="#657285"/>
<path d="M458.714 382.598H165.333L157.234 377.831H452.432L458.714 382.598Z" fill="#657285"/>
<path d="M355.686 422.523H292.167V425.541H355.686V422.523Z" fill="#4A75CB"/>
<path d="M215.799 158.14H507.109L463.202 334.648L168.53 334.7L215.799 158.14Z" fill="#B8C1C9"/>
<path d="M182.272 327.05H455.028L485.913 203.966L488.278 194.529L490.304 186.473L495.04 167.6H226.217L221.016 186.473L218.794 194.529L216.197 203.966L182.272 327.05Z" fill="#EAEAEA"/>
<path d="M226.217 167.6H495.04L490.304 186.473H221.016L226.217 167.6Z" fill="#D8E5FF"/>
<path d="M479.061 173.771C479.352 173.756 479.641 173.813 479.905 173.936C480.169 174.06 480.398 174.246 480.573 174.479C480.748 174.711 480.863 174.983 480.908 175.271C480.953 175.559 480.927 175.853 480.832 176.128C480.65 176.781 480.267 177.36 479.738 177.783C479.209 178.206 478.559 178.452 477.883 178.485C477.592 178.5 477.302 178.443 477.039 178.32C476.775 178.196 476.546 178.01 476.371 177.777C476.196 177.545 476.081 177.273 476.036 176.985C475.99 176.697 476.016 176.403 476.111 176.128C476.291 175.474 476.674 174.894 477.203 174.47C477.733 174.047 478.383 173.802 479.061 173.771V173.771Z" fill="#E9F3FE"/>
<path d="M471.218 173.771C471.508 173.756 471.798 173.813 472.062 173.936C472.325 174.06 472.555 174.246 472.73 174.479C472.904 174.711 473.019 174.983 473.065 175.271C473.11 175.559 473.084 175.853 472.989 176.128C472.808 176.781 472.426 177.361 471.896 177.784C471.366 178.208 470.717 178.453 470.039 178.485C469.749 178.498 469.46 178.44 469.198 178.316C468.935 178.192 468.707 178.006 468.532 177.774C468.358 177.542 468.243 177.27 468.197 176.984C468.151 176.697 468.175 176.403 468.268 176.128C468.45 175.475 468.833 174.896 469.362 174.473C469.892 174.05 470.541 173.804 471.218 173.771V173.771Z" fill="#E9F3FE"/>
<path d="M459.832 176.128C460.012 175.474 460.394 174.894 460.924 174.47C461.454 174.047 462.104 173.802 462.782 173.771C463.072 173.757 463.36 173.815 463.623 173.939C463.886 174.063 464.114 174.249 464.288 174.482C464.462 174.714 464.576 174.986 464.621 175.273C464.666 175.56 464.64 175.853 464.545 176.128C464.365 176.78 463.983 177.359 463.455 177.782C462.927 178.206 462.279 178.451 461.603 178.485C461.313 178.5 461.023 178.443 460.759 178.32C460.496 178.196 460.266 178.01 460.091 177.777C459.917 177.545 459.802 177.273 459.756 176.985C459.711 176.697 459.737 176.403 459.832 176.128V176.128Z" fill="#E9F3FE"/>
<path d="M216.64 316.33H308.312L339.032 193.072H247.36L216.64 316.33Z" fill="#F4F4F4"/>
<path opacity="0.5" d="M254.768 229.086H315.495C315.887 229.065 316.263 228.921 316.569 228.674C316.874 228.428 317.095 228.091 317.198 227.712L317.333 227.201C317.387 227.042 317.402 226.871 317.375 226.705C317.348 226.539 317.281 226.381 317.18 226.247C317.078 226.112 316.946 226.004 316.793 225.933C316.641 225.861 316.473 225.827 316.305 225.835H255.579C255.186 225.855 254.81 225.997 254.503 226.242C254.196 226.488 253.974 226.823 253.867 227.201L253.74 227.712C253.686 227.872 253.672 228.042 253.699 228.209C253.726 228.376 253.793 228.533 253.894 228.668C253.995 228.803 254.127 228.912 254.28 228.984C254.432 229.057 254.599 229.092 254.768 229.086V229.086Z" fill="#657285"/>
<path opacity="0.5" d="M260.172 207.412H320.891C321.285 207.392 321.662 207.249 321.969 207.002C322.277 206.756 322.498 206.418 322.602 206.038L322.73 205.527C322.784 205.368 322.798 205.197 322.771 205.031C322.744 204.865 322.677 204.707 322.576 204.573C322.475 204.438 322.342 204.33 322.19 204.259C322.037 204.187 321.87 204.153 321.701 204.161H260.982C260.59 204.18 260.213 204.322 259.906 204.567C259.598 204.812 259.376 205.148 259.271 205.527L259.143 206.038C259.088 206.198 259.073 206.369 259.099 206.536C259.125 206.704 259.192 206.862 259.293 206.998C259.395 207.133 259.528 207.242 259.681 207.314C259.834 207.386 260.003 207.42 260.172 207.412V207.412Z" fill="#657285"/>
<path opacity="0.5" d="M258.295 214.942H319.045C319.438 214.922 319.816 214.779 320.123 214.532C320.43 214.286 320.652 213.948 320.756 213.568L320.883 213.057C320.937 212.898 320.951 212.727 320.925 212.561C320.898 212.395 320.831 212.237 320.73 212.103C320.628 211.968 320.496 211.86 320.343 211.788C320.191 211.717 320.023 211.683 319.855 211.691H259.136C258.743 211.71 258.366 211.852 258.059 212.097C257.752 212.342 257.53 212.678 257.425 213.057L257.297 213.568C257.243 213.725 257.227 213.894 257.252 214.059C257.276 214.223 257.34 214.38 257.438 214.515C257.536 214.65 257.665 214.759 257.815 214.833C257.964 214.907 258.129 214.945 258.295 214.942V214.942Z" fill="#657285"/>
<path opacity="0.5" d="M256.531 222.014H317.258C317.65 221.993 318.026 221.849 318.332 221.602C318.638 221.356 318.858 221.019 318.962 220.64L319.089 220.129C319.143 219.97 319.157 219.801 319.131 219.635C319.104 219.469 319.038 219.312 318.938 219.178C318.837 219.044 318.706 218.936 318.554 218.863C318.403 218.791 318.236 218.757 318.069 218.763H257.342C256.949 218.782 256.573 218.924 256.265 219.169C255.958 219.414 255.736 219.75 255.631 220.129L255.503 220.64C255.448 220.8 255.432 220.971 255.458 221.138C255.485 221.306 255.551 221.464 255.653 221.6C255.754 221.735 255.887 221.844 256.041 221.916C256.194 221.988 256.362 222.022 256.531 222.014V222.014Z" fill="#657285"/>
<path opacity="0.5" d="M251.173 243.5H311.899C312.293 243.48 312.67 243.336 312.977 243.089C313.284 242.843 313.506 242.506 313.611 242.126L313.738 241.616C313.792 241.456 313.806 241.286 313.779 241.119C313.753 240.953 313.686 240.796 313.584 240.661C313.483 240.527 313.35 240.419 313.198 240.347C313.046 240.275 312.878 240.242 312.71 240.249H251.983C251.591 240.269 251.215 240.412 250.908 240.657C250.601 240.902 250.378 241.237 250.272 241.616L250.144 242.126C250.091 242.286 250.077 242.457 250.104 242.623C250.131 242.79 250.197 242.947 250.299 243.083C250.4 243.218 250.532 243.326 250.684 243.399C250.836 243.472 251.004 243.506 251.173 243.5V243.5Z" fill="#657285"/>
<path opacity="0.5" d="M252.936 236.428H313.663C314.056 236.407 314.433 236.264 314.74 236.017C315.047 235.771 315.269 235.434 315.374 235.054L315.502 234.544C315.556 234.384 315.57 234.214 315.543 234.047C315.516 233.881 315.449 233.724 315.348 233.589C315.247 233.454 315.114 233.347 314.962 233.275C314.809 233.203 314.642 233.17 314.474 233.177H253.747C253.355 233.197 252.978 233.34 252.671 233.585C252.364 233.83 252.142 234.165 252.036 234.544L251.908 235.054C251.855 235.214 251.841 235.385 251.868 235.551C251.894 235.718 251.961 235.875 252.062 236.01C252.163 236.146 252.296 236.254 252.448 236.327C252.6 236.4 252.768 236.434 252.936 236.428V236.428Z" fill="#657285"/>
<path opacity="0.5" d="M240.117 286.518H254.865C255.329 286.49 255.773 286.319 256.136 286.028C256.498 285.738 256.763 285.342 256.892 284.896V284.896C256.957 284.707 256.974 284.504 256.943 284.306C256.912 284.108 256.833 283.921 256.714 283.761C256.594 283.6 256.437 283.471 256.256 283.385C256.075 283.299 255.876 283.259 255.676 283.267H240.928C240.462 283.294 240.016 283.465 239.651 283.757C239.287 284.049 239.022 284.447 238.894 284.896V284.896C238.83 285.086 238.814 285.288 238.846 285.486C238.878 285.683 238.958 285.87 239.078 286.029C239.199 286.189 239.356 286.317 239.537 286.402C239.718 286.487 239.917 286.527 240.117 286.518V286.518Z" fill="#657285"/>
<path opacity="0.5" d="M285.27 286.518H300.018C300.482 286.49 300.926 286.319 301.289 286.028C301.651 285.738 301.915 285.342 302.045 284.896V284.896C302.11 284.707 302.127 284.504 302.096 284.306C302.065 284.108 301.986 283.921 301.867 283.761C301.747 283.6 301.59 283.471 301.409 283.385C301.228 283.299 301.029 283.259 300.829 283.267H286.111C285.645 283.294 285.199 283.465 284.834 283.757C284.47 284.049 284.205 284.447 284.077 284.896V284.896C284.014 285.083 283.997 285.283 284.028 285.478C284.059 285.673 284.136 285.858 284.253 286.017C284.37 286.176 284.523 286.304 284.7 286.391C284.877 286.479 285.073 286.522 285.27 286.518V286.518Z" fill="#657285"/>
<path d="M344.488 316.33H436.152L466.88 193.072H375.208L344.488 316.33Z" fill="#F4F4F4"/>
<path opacity="0.5" d="M382.616 229.086H443.335C443.729 229.066 444.106 228.923 444.413 228.676C444.721 228.43 444.942 228.092 445.046 227.712L445.174 227.201C445.228 227.042 445.242 226.871 445.215 226.705C445.188 226.539 445.121 226.381 445.02 226.247C444.919 226.112 444.786 226.004 444.634 225.933C444.481 225.861 444.314 225.827 444.146 225.835H383.419C383.028 225.855 382.652 225.998 382.347 226.243C382.041 226.488 381.82 226.824 381.715 227.201L381.588 227.712C381.532 227.872 381.517 228.043 381.543 228.21C381.569 228.378 381.636 228.536 381.737 228.672C381.839 228.807 381.972 228.916 382.125 228.988C382.278 229.06 382.447 229.094 382.616 229.086Z" fill="#657285"/>
<path opacity="0.5" d="M388.012 207.412H448.739C449.132 207.391 449.509 207.248 449.816 207.001C450.123 206.754 450.345 206.417 450.45 206.038L450.578 205.527C450.632 205.368 450.646 205.197 450.619 205.031C450.592 204.865 450.525 204.707 450.424 204.573C450.323 204.438 450.19 204.33 450.038 204.259C449.885 204.187 449.718 204.153 449.55 204.161H388.845C388.453 204.182 388.078 204.325 387.771 204.57C387.464 204.815 387.241 205.15 387.134 205.527L387.006 206.038C386.954 206.196 386.94 206.364 386.965 206.529C386.991 206.694 387.056 206.85 387.154 206.985C387.253 207.119 387.382 207.228 387.531 207.302C387.681 207.377 387.845 207.414 388.012 207.412V207.412Z" fill="#657285"/>
<path opacity="0.5" d="M386.136 214.942H446.863C447.256 214.921 447.633 214.777 447.94 214.531C448.247 214.284 448.469 213.947 448.574 213.568L448.702 213.057C448.755 212.898 448.77 212.727 448.743 212.561C448.716 212.395 448.649 212.237 448.548 212.103C448.446 211.968 448.314 211.86 448.161 211.788C448.009 211.717 447.842 211.683 447.673 211.691H386.947C386.554 211.711 386.178 211.853 385.871 212.098C385.564 212.344 385.342 212.679 385.235 213.057L385.108 213.568C385.054 213.728 385.04 213.898 385.067 214.065C385.094 214.231 385.161 214.389 385.262 214.524C385.363 214.659 385.495 214.768 385.648 214.84C385.8 214.913 385.967 214.948 386.136 214.942V214.942Z" fill="#657285"/>
<path opacity="0.5" d="M384.342 222.014H445.136C445.53 221.993 445.906 221.85 446.214 221.603C446.521 221.356 446.742 221.019 446.847 220.64L446.975 220.129C447.029 219.97 447.043 219.799 447.016 219.633C446.989 219.467 446.923 219.309 446.821 219.175C446.72 219.04 446.587 218.932 446.435 218.86C446.283 218.789 446.115 218.755 445.947 218.763H385.183C384.791 218.783 384.416 218.926 384.11 219.171C383.805 219.416 383.584 219.751 383.479 220.129L383.351 220.64C383.297 220.797 383.281 220.964 383.306 221.129C383.33 221.293 383.393 221.449 383.49 221.584C383.587 221.718 383.715 221.828 383.864 221.903C384.012 221.977 384.176 222.015 384.342 222.014V222.014Z" fill="#657285"/>
<path opacity="0.5" d="M379.021 243.5H439.747C440.14 243.479 440.515 243.335 440.821 243.088C441.127 242.842 441.348 242.505 441.451 242.126L441.579 241.615C441.632 241.456 441.646 241.287 441.62 241.121C441.594 240.955 441.527 240.799 441.427 240.664C441.326 240.53 441.195 240.422 441.044 240.35C440.892 240.277 440.726 240.243 440.558 240.249H379.839C379.446 240.269 379.07 240.412 378.763 240.657C378.456 240.902 378.234 241.237 378.127 241.615L378 242.126C377.947 242.285 377.933 242.455 377.959 242.621C377.986 242.787 378.052 242.944 378.152 243.079C378.252 243.214 378.383 243.323 378.535 243.396C378.686 243.469 378.853 243.505 379.021 243.5V243.5Z" fill="#657285"/>
<path opacity="0.5" d="M380.784 236.428H441.511C441.903 236.407 442.279 236.263 442.585 236.016C442.891 235.77 443.111 235.433 443.215 235.054L443.343 234.544C443.396 234.384 443.411 234.214 443.384 234.047C443.357 233.881 443.29 233.724 443.189 233.589C443.087 233.454 442.955 233.347 442.802 233.275C442.65 233.203 442.483 233.17 442.314 233.177H381.595C381.202 233.196 380.826 233.338 380.518 233.583C380.211 233.829 379.989 234.165 379.884 234.544L379.756 235.054C379.701 235.214 379.685 235.385 379.712 235.553C379.738 235.72 379.804 235.878 379.906 236.014C380.007 236.15 380.14 236.258 380.294 236.33C380.447 236.403 380.615 236.436 380.784 236.428V236.428Z" fill="#657285"/>
<path opacity="0.5" d="M367.958 286.518H382.713C383.177 286.49 383.621 286.319 383.984 286.028C384.346 285.738 384.611 285.342 384.74 284.896V284.896C384.805 284.707 384.822 284.504 384.791 284.306C384.76 284.108 384.682 283.921 384.562 283.761C384.442 283.6 384.285 283.471 384.104 283.385C383.923 283.299 383.724 283.259 383.524 283.267H368.768C368.304 283.296 367.859 283.468 367.496 283.759C367.133 284.051 366.87 284.448 366.742 284.896C366.676 285.085 366.659 285.287 366.69 285.485C366.721 285.683 366.799 285.87 366.919 286.03C367.039 286.19 367.197 286.318 367.378 286.403C367.559 286.488 367.758 286.527 367.958 286.518V286.518Z" fill="#657285"/>
<path opacity="0.5" d="M413.14 286.518H427.874C428.337 286.49 428.781 286.319 429.144 286.028C429.507 285.738 429.771 285.342 429.9 284.896V284.896C429.965 284.707 429.983 284.504 429.952 284.306C429.921 284.108 429.842 283.921 429.722 283.761C429.602 283.6 429.445 283.471 429.264 283.385C429.083 283.299 428.884 283.259 428.684 283.267H413.951C413.486 283.296 413.042 283.468 412.679 283.759C412.316 284.051 412.053 284.448 411.925 284.896C411.859 285.085 411.841 285.287 411.872 285.485C411.903 285.683 411.982 285.87 412.102 286.03C412.222 286.19 412.38 286.318 412.561 286.403C412.742 286.488 412.941 286.527 413.14 286.518V286.518Z" fill="#657285"/>
<path d="M259.466 229.986C259.265 230.433 259.198 230.928 259.272 231.411C259.347 231.895 259.56 232.347 259.886 232.712V232.712C261.08 234.213 263.767 235.474 266.784 236.601C267.174 236.743 267.534 236.878 267.827 237.013L268.06 237.111L268.24 237.194C271.145 238.515 270.492 239.258 275.835 242.104C281.967 245.347 285.135 244.356 285.885 243.673C286.523 243.049 284.152 241.037 281.517 238.77L281.134 238.44L280.084 237.531C276.969 234.776 276.954 233.027 275.753 227.772C274.777 223.53 274.567 202.644 274.567 202.644L265.328 204.026C265.328 204.026 267.655 219.942 265.523 223.215C264.375 224.957 262.648 225.55 261.455 226.969L261.215 227.269C260.512 228.092 259.924 229.006 259.466 229.986Z" fill="#FF7955"/>
<path d="M259.466 229.986C259.265 230.433 259.198 230.928 259.272 231.411C259.347 231.895 259.56 232.347 259.886 232.712V232.712C261.215 234.213 263.849 235.429 266.791 236.578C267.174 236.728 267.542 236.871 267.827 237.013L268.06 237.111L268.24 237.194C271.145 238.515 270.492 239.258 275.835 242.103C281.967 245.347 285.135 244.356 285.885 243.673C286.523 243.049 284.152 241.037 281.517 238.77C277.914 238.579 274.426 237.436 271.407 235.459C267.504 232.862 264.187 228.965 261.455 226.968L261.215 227.269C260.512 228.092 259.924 229.006 259.466 229.986V229.986Z" fill="#131F2D"/>
<path d="M332.442 224.476C333.057 227.517 337.388 227.006 342.199 225.82C347.01 224.634 345.892 226.045 352.782 225.287C359.672 224.529 361.788 221.953 361.968 220.925C362.156 220.017 358.748 219.694 355.101 219.273C354.635 219.228 354.178 219.168 353.712 219.108C349.592 218.59 346.574 215.933 342.829 213.748C339.279 211.676 333.988 203.237 333.988 203.237L324.538 203.988C324.538 203.988 329.5 211.496 331.413 214.799C332.547 216.728 332.487 219.303 332.344 221.24C332.234 222.318 332.267 223.406 332.442 224.476V224.476Z" fill="#FF7955"/>
<path d="M342.229 225.82C347.07 224.641 345.922 226.045 352.812 225.287C359.702 224.528 361.818 221.953 361.998 220.925C362.186 220.017 358.778 219.694 355.131 219.273L355.093 219.348C352.141 221.243 348.73 222.302 345.224 222.411C340.555 222.524 335.602 221.188 332.374 221.24C332.254 222.317 332.277 223.405 332.442 224.476C333.057 227.516 337.388 227.006 342.229 225.82Z" fill="#131F2D"/>
<path d="M296.235 164.041L275.873 218.845C273.812 218.997 271.74 218.806 269.741 218.282C267.654 217.571 265.664 216.6 263.819 215.392C263.819 215.392 268.87 162.757 278.132 151.811C287.394 140.865 296.235 164.041 296.235 164.041Z" fill="#131F2D"/>
<path d="M215.687 141.864C215.687 141.864 274.229 122.067 287.251 126.279C300.273 130.49 339.489 208.47 339.489 208.47C338.59 209.441 337.451 210.158 336.187 210.55C333.935 211.391 328.509 211.338 328.509 211.338C328.509 211.338 293.151 181.023 288.94 172.179C284.729 163.335 283.041 154.912 278.838 155.753C274.635 156.594 224.528 176.391 213.165 164.597C201.802 152.802 204.766 137.487 204.766 137.487L215.687 141.864Z" fill="#364154"/>
<path d="M249.048 2.30801C246.681 1.09518 244.02 0.574757 241.37 0.806516C241.837 0.424672 242.392 0.16648 242.984 0.0557712C241.671 -0.139422 238.736 1.16687 238.736 1.16687C220.453 -5.88263 217.578 21.0541 217.961 27.3078C218.344 33.5615 218.389 40.7687 209.262 46.3843C191.294 57.4277 206.455 76.6993 206.455 76.6993C206.59 76.7819 214.809 90.7233 214.809 90.7233C214.351 85.6707 237.67 58.9817 249.844 50.9938C252.809 46.6245 253.859 38.9218 253.935 38.3137C253.424 44.4248 252.381 47.8557 251.45 49.7851C261.748 40.3032 255.751 6.11428 249.048 2.30801Z" fill="#131F2D"/>
<path d="M249.124 51.3992C249.184 51.3992 243.247 54.5073 238.781 53.2836C234.578 52.1424 231.838 46.692 231.891 46.677C233.67 46.3242 234.188 43.8842 234.143 33.3738L234.946 33.5315L248.456 36.2116C248.456 36.2116 248.148 40.4683 248.14 44.4698C248.148 47.8407 248.35 51.0388 249.124 51.3992Z" fill="#FF7955"/>
<path d="M248.493 36.2116C248.493 36.2116 248.185 40.4684 248.178 44.4698C240.612 44.2521 236.612 37.3528 234.976 33.524L248.493 36.2116Z" fill="#EF6343"/>
<path d="M233.557 32.06C233.557 32.06 229.594 25.7913 228.641 20.431C227.958 16.6097 229.91 2.41312 244.155 4.47016C247.02 4.85795 249.762 5.88417 252.178 7.47314C255.278 9.56772 259.736 14.0797 254.745 26.452L253.454 30.6787L233.557 32.06Z" fill="#131F2D"/>
<path d="M251 40.0104C251 40.0104 233.099 40.3032 233.084 29.1472C233.069 17.9911 230.758 10.5212 242.181 9.86053C253.604 9.19987 255.841 13.4566 256.749 17.1728C257.657 20.889 255.661 39.6426 251 40.0104Z" fill="#FF7955"/>
<path d="M256.216 10.9716C253.454 7.62328 251.368 8.35151 250.212 9.35751C246.347 3.57677 234.12 11.9401 234.12 11.9401C233.325 16.8166 230.864 21.2663 227.155 24.5301C227.155 24.5301 230.412 26.5421 237.94 24.6051C243.855 23.1037 248.155 14.6578 249.716 11.1368C250.782 12.0827 253.026 14.2674 253.702 16.392C254.588 19.2298 254.993 25.0781 256.704 24.8754C256.674 24.8979 260.367 16.0016 256.216 10.9716Z" fill="#131F2D"/>
<path d="M201.959 142.172C202.927 144.852 205.884 145.543 209.855 145.077C217.42 144.191 228.664 139.109 236.762 135.595C249.116 130.242 254.722 135.272 258.655 131.842C262.588 128.411 254.152 120.858 261.462 85.6708C263.939 73.7414 248.253 48.1335 248.253 48.1335C248.253 48.1335 246.842 55.641 231.891 46.632C231.598 46.4518 219.77 65.8511 219.77 65.8511C219.77 65.8511 207.491 92.1272 209.262 99.522C212.624 113.689 199.152 134.379 201.959 142.172Z" fill="#182E58"/>
<path d="M248.253 48.1786L257.5 86.1363C257.5 86.1363 258.648 88.1858 260.449 91.1062C264.69 97.953 272.525 109.59 277.547 110.768C280.023 111.354 285.285 109.267 291.109 106.346C302.127 100.783 288.782 72.1799 288.782 72.1799C289.623 67.1199 270.424 70.5883 270.424 70.5883C270.424 70.5883 285.217 92.8029 282.598 92.9906C276.886 93.396 271.069 65.8286 265.733 56.6395C261.883 49.9954 248.253 48.1786 248.253 48.1786Z" fill="#182E58"/>
<path d="M246.992 33.2463C246.992 33.2463 247.322 34.6652 250.85 34.4475C250.85 34.4475 253.807 34.2598 253.717 32.7058C251.485 32.0571 249.092 32.2494 246.992 33.2463V33.2463Z" fill="white"/>
<path d="M201.959 142.172C202.927 144.852 205.884 145.543 209.855 145.077C215.109 142.825 237.715 134.026 237.467 128.088C237.092 119.289 233.114 119.011 235.921 108.156C238.173 99.4319 217.27 83.2308 213.938 79.7023C207.663 91.6016 207.491 92.1647 209.262 99.567C212.624 113.689 199.152 134.379 201.959 142.172Z" fill="#182E58"/>
<path d="M260.457 91.1061C264.697 97.9529 272.533 109.589 277.554 110.768C280.031 111.354 285.292 109.267 291.117 106.346C287.06 107.31 282.863 107.542 278.725 107.029C274.372 106.609 273.111 101.271 266.236 93.2757C261.77 88.0881 260.682 89.3869 260.457 91.1061Z" fill="#B5453C"/>
<path d="M231.891 46.3232C231.891 46.3232 212.151 48.3652 208.819 55.4823C205.487 62.5993 195.699 90.6096 198.589 103.53C201.479 116.45 227.042 93.973 227.042 93.973L231.891 46.3232Z" fill="#182E58"/>
<path d="M326.22 125.37L316.042 66.4967C315.96 66.0091 315.782 65.5427 315.518 65.1242C315.255 64.7057 314.911 64.3433 314.507 64.058C314.104 63.7727 313.647 63.57 313.165 63.4615C312.683 63.3531 312.184 63.3411 311.697 63.4262L204.488 81.9246C204.001 82.0072 203.535 82.1853 203.116 82.4488C202.698 82.7123 202.336 83.0558 202.05 83.4597C201.765 83.8637 201.562 84.32 201.454 84.8025C201.346 85.285 201.334 85.7842 201.419 86.2714L211.566 145.145C211.65 145.632 211.828 146.097 212.092 146.515C212.356 146.933 212.7 147.294 213.103 147.579C213.507 147.863 213.963 148.065 214.445 148.173C214.927 148.281 215.425 148.293 215.912 148.208L323.15 129.717C323.637 129.634 324.104 129.456 324.522 129.193C324.941 128.929 325.303 128.586 325.588 128.182C325.873 127.778 326.076 127.322 326.184 126.839C326.293 126.356 326.305 125.857 326.22 125.37V125.37Z" fill="#365A9F"/>
<path d="M317.116 72.6737L202.465 92.4415L204.725 105.559L319.377 85.791L317.116 72.6737Z" fill="#131F2D"/>
<path d="M284.132 95.6408L213.985 107.735L215.762 118.049L285.909 105.954L284.132 95.6408Z" fill="#EAEAEA"/>
<path d="M228.701 124.283L219.98 125.787C218.436 126.053 217.4 127.521 217.666 129.065L218.963 136.59C219.229 138.134 220.697 139.17 222.241 138.904L230.961 137.401C232.505 137.134 233.541 135.666 233.275 134.122L231.978 126.598C231.712 125.053 230.245 124.017 228.701 124.283Z" fill="#EAEAEA"/>
<path d="M244.823 122.84L313.731 110.956C314.018 110.906 314.274 110.745 314.443 110.507C314.611 110.27 314.679 109.975 314.631 109.687L314.444 108.629C314.42 108.486 314.369 108.349 314.292 108.227C314.215 108.104 314.115 107.998 313.997 107.914C313.879 107.83 313.746 107.771 313.605 107.739C313.464 107.707 313.318 107.703 313.175 107.728L244.268 119.612C244.125 119.636 243.988 119.689 243.865 119.766C243.743 119.844 243.636 119.945 243.553 120.063C243.469 120.182 243.41 120.316 243.378 120.457C243.346 120.599 243.342 120.745 243.367 120.888L243.547 121.947C243.598 122.234 243.761 122.49 244.001 122.657C244.24 122.825 244.536 122.89 244.823 122.84V122.84Z" fill="#EAEAEA"/>
<path d="M314.225 113.883L245.291 125.768C244.699 125.871 244.301 126.434 244.403 127.026L244.577 128.032C244.679 128.625 245.242 129.022 245.834 128.92L314.768 117.035C315.361 116.933 315.758 116.37 315.656 115.777L315.483 114.771C315.381 114.178 314.818 113.781 314.225 113.883Z" fill="#EAEAEA"/>
<path d="M316.68 121.586L316.485 120.438C316.434 120.144 316.268 119.883 316.025 119.712C315.781 119.54 315.48 119.472 315.186 119.522L246.316 131.406C246.171 131.431 246.033 131.484 245.908 131.562C245.784 131.64 245.676 131.742 245.591 131.862C245.506 131.982 245.445 132.117 245.413 132.261C245.38 132.404 245.376 132.552 245.401 132.697L245.603 133.846C245.628 133.991 245.681 134.13 245.759 134.254C245.837 134.379 245.939 134.487 246.059 134.572C246.179 134.657 246.314 134.717 246.458 134.75C246.601 134.783 246.749 134.787 246.894 134.762L315.764 122.885C316.058 122.834 316.319 122.668 316.49 122.425C316.662 122.181 316.73 121.88 316.68 121.586V121.586Z" fill="#EAEAEA"/>
<path d="M217.361 79.7023C217.361 79.7023 223.192 73.3135 229.062 74.4471C234.931 75.5807 236.379 80.2729 235.719 81.2714C235.059 82.2699 233.047 83.7188 230.045 83.0507C227.043 82.3825 217.361 79.7023 217.361 79.7023Z" fill="#FF7955"/>
<path d="M270.432 70.5883C270.432 70.5883 276.263 64.1919 282.14 65.333C288.017 66.4742 289.458 71.1588 288.79 72.1648C288.122 73.1708 286.118 74.6047 283.123 73.9366C280.129 73.2684 270.432 70.5883 270.432 70.5883Z" fill="#FF7955"/>
<path d="M473.327 143.516C473.041 143.441 472.742 143.424 472.449 143.464C472.156 143.505 471.874 143.603 471.619 143.753C471.364 143.903 471.141 144.102 470.963 144.338C470.784 144.574 470.654 144.843 470.58 145.13L465.326 165.933H397.777L402.783 146.218C402.919 145.642 402.823 145.036 402.515 144.53C402.208 144.024 401.714 143.66 401.139 143.516C400.853 143.441 400.555 143.424 400.262 143.464C399.969 143.505 399.687 143.603 399.431 143.753C399.176 143.903 398.953 144.102 398.775 144.338C398.597 144.574 398.467 144.843 398.392 145.13L344.676 356.397H344.466V357.253L327.811 422.808C327.675 423.384 327.771 423.991 328.079 424.496C328.386 425.002 328.881 425.367 329.455 425.51C329.634 425.555 329.818 425.577 330.003 425.578C330.505 425.582 330.994 425.418 331.393 425.112C331.791 424.806 332.076 424.376 332.202 423.889L348.511 359.7H416.06L400.021 422.808C399.885 423.385 399.982 423.993 400.291 424.499C400.601 425.005 401.097 425.368 401.672 425.51C401.851 425.555 402.035 425.578 402.22 425.578C402.721 425.581 403.209 425.416 403.606 425.11C404.003 424.804 404.287 424.374 404.412 423.889L430.403 321.607L431.229 318.342L474.971 146.218C475.107 145.642 475.011 145.036 474.703 144.53C474.395 144.024 473.901 143.66 473.327 143.516ZM416.901 356.397H349.352L358.463 320.466V321.57H425.75L416.901 356.397ZM426.583 318.304H359.034L367.883 283.477H435.432L426.583 318.304ZM436.257 280.211H368.708L377.542 245.392H445.091L436.257 280.211ZM445.94 242.119H378.39L387.232 207.291H454.781L445.94 242.119ZM455.644 204.026H388.095L396.944 169.206H464.493L455.644 204.026Z" fill="#263238"/>
<path d="M298.615 412.417V421.854C298.614 422.577 298.397 423.283 297.992 423.881C297.575 424.497 296.981 424.971 296.288 425.24C296.073 425.329 295.849 425.392 295.62 425.428C295.409 425.467 295.196 425.487 294.982 425.488H144.76C144.177 425.487 143.603 425.346 143.086 425.075C142.549 424.795 142.09 424.385 141.751 423.883C141.411 423.381 141.202 422.803 141.142 422.2C141.139 422.147 141.139 422.094 141.142 422.042C141.139 421.979 141.139 421.917 141.142 421.854V412.417C141.139 412.355 141.139 412.292 141.142 412.23C141.192 411.301 141.596 410.426 142.27 409.786C142.944 409.145 143.838 408.786 144.768 408.784H294.982C295.196 408.785 295.409 408.805 295.62 408.844C295.849 408.88 296.073 408.943 296.288 409.032C296.983 409.296 297.579 409.771 297.992 410.39C298.397 410.988 298.614 411.695 298.615 412.417Z" fill="#D8E5FF"/>
<path d="M224.851 425.488H144.37C143.842 425.487 143.323 425.344 142.869 425.075C142.373 424.767 141.957 424.346 141.656 423.846C141.354 423.346 141.176 422.782 141.135 422.2C141.131 422.147 141.131 422.094 141.135 422.042C141.131 421.979 141.131 421.917 141.135 421.854V412.417C141.131 412.355 141.131 412.292 141.135 412.23C141.132 411.351 141.465 410.503 142.067 409.863C142.668 409.222 143.493 408.836 144.37 408.784H214.966C216.062 413.566 218.576 420.135 224.356 425.075L224.851 425.488Z" fill="#365A9F"/>
<path d="M280.331 408.784H278.628V425.488H280.331V408.784Z" fill="#365A9F"/>
<path d="M274.552 408.784H272.848V425.488H274.552V408.784Z" fill="#365A9F"/>
<path d="M267.617 408.784H265.913V425.488H267.617V408.784Z" fill="#365A9F"/>
<path d="M256.997 408.784H255.293V425.488H256.997V408.784Z" fill="#365A9F"/>
<path d="M245.761 408.784H244.057V425.488H245.761V408.784Z" fill="#365A9F"/>
<path d="M228.543 408.784H226.84V425.488H228.543V408.784Z" fill="#365A9F"/>
<path d="M212.422 408.784H210.718V425.488H212.422V408.784Z" fill="#365A9F"/>
<path d="M198.019 408.784H196.315V425.488H198.019V408.784Z" fill="#365A9F"/>
<path d="M285.833 408.784H284.129V425.488H285.833V408.784Z" fill="#365A9F"/>
<path d="M289.465 408.784H287.762V425.488H289.465V408.784Z" fill="#365A9F"/>
<path d="M292.971 408.784H291.267V425.488H292.971V408.784Z" fill="#365A9F"/>
<path d="M295.62 408.844V425.428C295.41 425.467 295.196 425.487 294.982 425.488H293.916V408.784H294.982C295.196 408.785 295.41 408.805 295.62 408.844Z" fill="#365A9F"/>
<path d="M298.029 410.391V423.904C297.612 424.519 297.018 424.993 296.326 425.263V409.054C297.018 409.313 297.613 409.78 298.029 410.391Z" fill="#365A9F"/>
<path d="M310.886 395.713V405.15C310.889 405.874 310.672 406.581 310.263 407.177C309.846 407.793 309.252 408.267 308.559 408.536C308.346 408.621 308.125 408.684 307.899 408.724C307.686 408.763 307.47 408.783 307.253 408.784H157.039C156.108 408.781 155.214 408.423 154.538 407.783C153.863 407.142 153.458 406.267 153.406 405.338V395.541C153.455 394.685 153.802 393.873 154.388 393.247C154.974 392.622 155.761 392.222 156.611 392.117C156.754 392.11 156.897 392.11 157.039 392.117H307.253C307.47 392.118 307.686 392.138 307.899 392.177C308.126 392.213 308.347 392.276 308.559 392.365C309.243 392.63 309.831 393.094 310.246 393.698C310.661 394.303 310.884 395.018 310.886 395.751V395.713Z" fill="#D8E5FF"/>
<path d="M237.122 408.784H156.649C155.771 408.73 154.947 408.344 154.345 407.704C153.742 407.063 153.407 406.217 153.406 405.338V395.541C153.413 394.727 153.702 393.941 154.223 393.317C154.745 392.692 155.467 392.269 156.266 392.117C156.393 392.11 156.521 392.11 156.649 392.117H227.245C228.378 397.042 231.005 403.799 237.122 408.784Z" fill="#365A9F"/>
<path d="M292.603 392.08H290.899V408.784H292.603V392.08Z" fill="#365A9F"/>
<path d="M286.824 392.08H285.12V408.784H286.824V392.08Z" fill="#365A9F"/>
<path d="M279.896 392.08H278.192V408.784H279.896V392.08Z" fill="#365A9F"/>
<path d="M269.276 392.08H267.572V408.784H269.276V392.08Z" fill="#365A9F"/>
<path d="M258.04 392.08H256.336V408.784H258.04V392.08Z" fill="#365A9F"/>
<path d="M240.823 392.08H239.119V408.784H240.823V392.08Z" fill="#365A9F"/>
<path d="M224.693 392.08H222.99V408.784H224.693V392.08Z" fill="#365A9F"/>
<path d="M210.298 392.08H208.594V408.784H210.298V392.08Z" fill="#365A9F"/>
<path d="M298.104 392.08H296.4V408.784H298.104V392.08Z" fill="#365A9F"/>
<path d="M301.745 392.08H300.041V408.784H301.745V392.08Z" fill="#365A9F"/>
<path d="M305.249 392.08H303.546V408.784H305.249V392.08Z" fill="#365A9F"/>
<path d="M307.899 392.14V408.724C307.686 408.763 307.47 408.783 307.253 408.784H306.188V392.08H307.253C307.47 392.081 307.686 392.101 307.899 392.14V392.14Z" fill="#365A9F"/>
<path d="M310.271 393.686V407.2C309.848 407.813 309.252 408.286 308.559 408.559V392.328C309.256 392.594 309.853 393.068 310.271 393.686V393.686Z" fill="#365A9F"/>
<path d="M291.169 379.024V388.454C291.169 389.188 290.946 389.905 290.531 390.511C290.116 391.116 289.527 391.582 288.842 391.847C288.626 391.929 288.402 391.992 288.174 392.035H287.964H287.792H137.315C136.385 392.032 135.491 391.674 134.817 391.033C134.143 390.392 133.739 389.518 133.689 388.589C133.686 388.526 133.686 388.464 133.689 388.401V379.024C133.686 378.962 133.686 378.899 133.689 378.837C133.739 377.907 134.142 377.032 134.816 376.39C135.49 375.748 136.384 375.388 137.315 375.383H287.724C287.875 375.393 288.025 375.41 288.174 375.436C288.403 375.475 288.627 375.538 288.842 375.623L289.158 375.766L289.345 375.864L289.533 375.976L289.691 376.089C289.819 376.186 289.94 376.294 290.051 376.412C290.089 376.443 290.125 376.478 290.156 376.517V376.517L290.216 376.584L290.328 376.72L290.471 376.915C290.918 377.528 291.162 378.266 291.169 379.024V379.024Z" fill="#D8E5FF"/>
<path d="M217.405 392.102H136.924C136.047 392.051 135.223 391.665 134.621 391.024C134.019 390.383 133.686 389.536 133.689 388.656C133.686 388.594 133.686 388.531 133.689 388.469V379.024C133.686 378.962 133.686 378.899 133.689 378.837C133.684 377.956 134.017 377.107 134.618 376.465C135.22 375.822 136.046 375.435 136.924 375.383H207.521L207.611 375.774C208.782 380.646 211.424 387.208 217.368 392.065L217.405 392.102Z" fill="#365A9F"/>
<path d="M272.886 375.406H271.182V392.11H272.886V375.406Z" fill="#365A9F"/>
<path d="M267.107 375.406H265.403V392.11H267.107V375.406Z" fill="#365A9F"/>
<path d="M260.172 375.406H258.468V392.11H260.172V375.406Z" fill="#365A9F"/>
<path d="M249.551 375.406H247.848V392.11H249.551V375.406Z" fill="#365A9F"/>
<path d="M238.316 375.406H236.612V392.11H238.316V375.406Z" fill="#365A9F"/>
<path d="M221.098 375.406H219.394V392.11H221.098V375.406Z" fill="#365A9F"/>
<path d="M204.976 375.406H203.273V392.11H204.976V375.406Z" fill="#365A9F"/>
<path d="M190.573 375.406H188.87V392.11H190.573V375.406Z" fill="#365A9F"/>
<path d="M278.388 375.406H276.684V392.11H278.388V375.406Z" fill="#365A9F"/>
<path d="M282.02 375.406H280.316V392.11H282.02V375.406Z" fill="#365A9F"/>
<path d="M285.525 375.406H283.821V392.11H285.525V375.406Z" fill="#365A9F"/>
<path d="M288.174 375.458V392.05C287.964 392.086 287.75 392.104 287.537 392.102H286.463V375.398H287.522C287.741 375.398 287.959 375.418 288.174 375.458V375.458Z" fill="#365A9F"/>
<path d="M290.524 377.005V390.518C290.107 391.134 289.513 391.608 288.82 391.877V375.646C289.513 375.916 290.107 376.389 290.524 377.005Z" fill="#365A9F"/>
<path d="M302.21 362.718V372.155C302.213 372.878 301.996 373.585 301.587 374.182C301.17 374.797 300.576 375.271 299.883 375.541C299.668 375.627 299.444 375.69 299.215 375.729C299.005 375.768 298.791 375.788 298.577 375.789H148.363C147.797 375.789 147.239 375.655 146.734 375.398C146.183 375.12 145.711 374.708 145.362 374.198C145.013 373.689 144.798 373.1 144.738 372.485C144.738 372.44 144.738 372.388 144.738 372.335C144.738 372.283 144.738 372.215 144.738 372.155V362.718C144.738 362.658 144.738 362.591 144.738 362.531C144.784 361.675 145.13 360.864 145.714 360.238C146.299 359.612 147.085 359.212 147.935 359.107C148.08 359.099 148.225 359.099 148.37 359.107H298.577C298.791 359.104 299.005 359.124 299.215 359.167C299.444 359.203 299.667 359.264 299.883 359.347C300.578 359.617 301.172 360.094 301.587 360.714C301.991 361.304 302.208 362.003 302.21 362.718Z" fill="#D8E5FF"/>
<path d="M228.446 375.789H147.972C147.464 375.788 146.964 375.653 146.524 375.398C146.012 375.094 145.582 374.67 145.271 374.162C144.96 373.655 144.777 373.079 144.738 372.485C144.738 372.44 144.738 372.388 144.738 372.335C144.738 372.283 144.738 372.215 144.738 372.155V362.718C144.738 362.658 144.738 362.591 144.738 362.531C144.744 361.717 145.033 360.931 145.555 360.307C146.076 359.682 146.798 359.258 147.597 359.107C147.725 359.099 147.852 359.099 147.98 359.107H218.569C219.672 363.897 222.194 370.466 227.988 375.398L228.446 375.789Z" fill="#365A9F"/>
<path d="M283.926 359.085H282.223V375.789H283.926V359.085Z" fill="#365A9F"/>
<path d="M278.147 359.085H276.443V375.789H278.147V359.085Z" fill="#365A9F"/>
<path d="M271.22 359.085H269.516V375.789H271.22V359.085Z" fill="#365A9F"/>
<path d="M260.592 359.085H258.888V375.789H260.592V359.085Z" fill="#365A9F"/>
<path d="M249.364 359.085H247.66V375.789H249.364V359.085Z" fill="#365A9F"/>
<path d="M232.139 359.085H230.435V375.789H232.139V359.085Z" fill="#365A9F"/>
<path d="M216.017 359.085H214.313V375.789H216.017V359.085Z" fill="#365A9F"/>
<path d="M201.622 359.085H199.918V375.789H201.622V359.085Z" fill="#365A9F"/>
<path d="M289.428 359.085H287.724V375.789H289.428V359.085Z" fill="#365A9F"/>
<path d="M293.061 359.085H291.357V375.789H293.061V359.085Z" fill="#365A9F"/>
<path d="M296.573 359.085H294.87V375.789H296.573V359.085Z" fill="#365A9F"/>
<path d="M299.215 359.137V375.728C299.005 375.768 298.791 375.788 298.577 375.789H297.511V359.084H298.577C298.791 359.083 299.004 359.1 299.215 359.137Z" fill="#365A9F"/>
<path d="M301.587 360.691V374.205C301.17 374.82 300.576 375.294 299.883 375.564V359.347C300.574 359.611 301.169 360.08 301.587 360.691Z" fill="#365A9F"/>
<path d="M291.169 346.037V355.474C291.166 356.207 290.942 356.923 290.527 357.528C290.112 358.133 289.525 358.599 288.843 358.867C288.627 358.95 288.403 359.01 288.175 359.047L287.964 359.085H137.315C136.385 359.082 135.491 358.724 134.817 358.083C134.143 357.442 133.739 356.568 133.69 355.639C133.686 355.576 133.686 355.514 133.69 355.451V346.037C133.686 345.977 133.686 345.917 133.69 345.857C133.739 344.927 134.142 344.052 134.816 343.41C135.49 342.768 136.384 342.407 137.315 342.403H287.522C287.736 342.404 287.949 342.424 288.16 342.463C288.388 342.503 288.612 342.566 288.828 342.651C289.52 342.92 290.114 343.394 290.531 344.01C290.942 344.606 291.165 345.312 291.169 346.037Z" fill="#D8E5FF"/>
<path d="M217.406 359.107H136.924C136.047 359.055 135.223 358.669 134.621 358.028C134.019 357.388 133.686 356.54 133.69 355.661C133.686 355.599 133.686 355.536 133.69 355.474V346.037C133.686 345.977 133.686 345.917 133.69 345.857C133.684 344.976 134.017 344.127 134.619 343.485C135.22 342.842 136.046 342.455 136.924 342.403H207.521C208.647 347.313 211.274 354.1 217.368 359.085L217.406 359.107Z" fill="#365A9F"/>
<path d="M272.886 342.411H271.182V359.115H272.886V342.411Z" fill="#365A9F"/>
<path d="M267.107 342.411H265.403V359.115H267.107V342.411Z" fill="#365A9F"/>
<path d="M260.172 342.411H258.468V359.115H260.172V342.411Z" fill="#365A9F"/>
<path d="M249.551 342.411H247.848V359.115H249.551V342.411Z" fill="#365A9F"/>
<path d="M238.316 342.411H236.612V359.115H238.316V342.411Z" fill="#365A9F"/>
<path d="M221.098 342.411H219.394V359.115H221.098V342.411Z" fill="#365A9F"/>
<path d="M204.976 342.411H203.273V359.115H204.976V342.411Z" fill="#365A9F"/>
<path d="M190.581 342.411H188.87V359.115H190.581V342.411Z" fill="#365A9F"/>
<path d="M278.388 342.411H276.684V359.115H278.388V342.411Z" fill="#365A9F"/>
<path d="M282.02 342.411H280.316V359.115H282.02V342.411Z" fill="#365A9F"/>
<path d="M285.525 342.411H283.821V359.115H285.525V342.411Z" fill="#365A9F"/>
<path d="M288.174 342.463V359.047C287.965 359.09 287.751 359.11 287.537 359.107H286.463V342.403H287.522C287.741 342.403 287.959 342.423 288.174 342.463V342.463Z" fill="#365A9F"/>
<path d="M290.524 344.01V357.523C290.109 358.142 289.515 358.619 288.82 358.889V342.673C289.51 342.937 290.104 343.403 290.524 344.01Z" fill="#365A9F"/>
<path d="M187.768 399.867C220.968 366.658 220.968 312.816 187.768 279.607C154.568 246.398 100.74 246.398 67.5395 279.607C34.3393 312.816 34.3393 366.658 67.5395 399.867C100.74 433.076 154.568 433.076 187.768 399.867Z" fill="#365A9F"/>
<path d="M180.343 399.87C213.543 366.661 213.543 312.819 180.343 279.61C147.143 246.401 93.3145 246.401 60.1143 279.61C26.9141 312.819 26.9141 366.661 60.1142 399.87C93.3145 433.079 147.143 433.079 180.343 399.87Z" fill="#D8E5FF"/>
<path d="M120.232 418.221C101.097 418.193 82.6548 411.058 68.4818 398.199C54.3089 385.34 45.4156 367.674 43.5271 348.628C41.6385 329.581 46.8893 310.512 58.2609 295.119C69.6326 279.726 86.3145 269.106 105.071 265.319C123.827 261.532 143.322 264.848 159.772 274.624C176.222 284.4 188.457 299.939 194.102 318.227C199.747 336.515 198.4 356.248 190.323 373.6C182.247 390.951 168.015 404.683 150.389 412.132C140.848 416.17 130.591 418.241 120.232 418.221V418.221ZM120.232 267.884C103.39 267.89 87.071 273.736 74.0548 284.426C61.0386 295.117 52.1307 309.991 48.8484 326.514C45.5661 343.038 48.1126 360.188 56.0541 375.044C63.9956 389.9 76.8407 401.543 92.4012 407.988C107.962 414.433 125.275 415.283 141.392 410.392C157.508 405.501 171.431 395.173 180.788 381.166C190.145 367.158 194.358 350.34 192.709 333.574C191.059 316.809 183.649 301.134 171.742 289.22C164.991 282.439 156.962 277.064 148.121 273.406C139.279 269.749 129.8 267.882 120.232 267.914V267.884Z" fill="#365A9F"/>
<path d="M130.898 363.259C131.105 361.758 131.044 360.233 130.717 358.754C130.376 357.376 129.726 356.092 128.819 355C127.717 353.705 126.436 352.575 125.013 351.645C123.131 350.404 121.162 349.3 119.121 348.341C115.394 346.526 111.761 344.522 108.239 342.335C105.236 340.509 102.498 338.278 100.103 335.706C97.9531 333.382 96.3142 330.632 95.2916 327.636C93.4047 321.161 94.1491 314.203 97.3631 308.274C98.8734 305.652 100.919 303.378 103.367 301.6C105.967 299.737 108.877 298.351 111.961 297.508C115.456 296.557 119.075 296.139 122.694 296.27L124.195 283.507L134.47 284.723L132.969 297.674C136.397 298.506 139.666 299.896 142.644 301.788C145.397 303.52 147.773 305.789 149.632 308.459C151.492 311.128 152.795 314.144 153.466 317.328C154.236 320.933 154.381 324.643 153.894 328.296L135.333 326.097C135.899 321.322 135.263 317.626 133.427 315.008C132.496 313.7 131.288 312.613 129.89 311.825C128.491 311.036 126.937 310.564 125.336 310.444C123.646 310.205 121.926 310.278 120.262 310.661C118.91 310.979 117.646 311.594 116.562 312.463C115.551 313.297 114.738 314.346 114.183 315.534C113.587 316.812 113.205 318.179 113.05 319.58C112.871 320.936 112.926 322.312 113.215 323.649C113.543 324.966 114.167 326.191 115.038 327.23C116.149 328.528 117.441 329.658 118.874 330.586C120.844 331.887 122.889 333.07 124.998 334.13C128.966 336.172 132.556 338.211 135.769 340.248C138.758 342.098 141.483 344.346 143.867 346.93C146.01 349.269 147.646 352.027 148.67 355.03C150.559 361.555 149.787 368.563 146.524 374.52C145.015 377.126 142.968 379.381 140.52 381.134C137.908 382.968 134.979 384.302 131.881 385.068C128.357 385.953 124.726 386.338 121.095 386.209L119.692 398.086L109.477 396.869L110.858 385.03C107.38 384.267 104.009 383.077 100.823 381.487C97.7184 379.948 94.9304 377.839 92.6046 375.271C90.2359 372.603 88.4764 369.452 87.4484 366.036C86.2824 361.964 85.9908 357.692 86.5928 353.499L105.139 355.699C104.782 358.101 104.902 360.55 105.492 362.906C105.97 364.731 106.876 366.416 108.133 367.823C109.309 369.104 110.758 370.102 112.374 370.743C114.005 371.4 115.716 371.837 117.463 372.042C119.255 372.29 121.075 372.242 122.852 371.9C124.311 371.616 125.697 371.038 126.927 370.203C128.049 369.426 128.974 368.398 129.629 367.2C130.303 365.981 130.734 364.642 130.898 363.259V363.259Z" fill="#365A9F"/>
</svg>
