<svg width="275" height="96" viewBox="0 0 275 96" fill="none" xmlns="http://www.w3.org/2000/svg">
<path d="M195.973 57.5146C196.013 56.8267 196.07 56.2935 196.075 55.744C196.075 52.1376 196.075 48.5353 196.075 44.933C196.099 41.6767 197.946 39.8206 201.184 39.8165C222.86 39.8165 244.534 39.8165 266.204 39.8165C271.021 39.8165 274.341 43.1787 274.341 47.9899C274.365 51.7876 274.341 55.5853 274.341 59.387C264.849 59.387 255.48 59.387 246.115 59.387C243.011 59.387 240.484 60.4738 238.654 63.0504C234.992 68.1954 238.247 75.514 244.528 76.21C244.83 76.2506 245.135 76.275 245.44 76.2833H274.162C274.162 76.2833 274.284 76.3484 274.284 76.4257C274.304 80.5328 274.524 84.652 274.284 88.7468C274.024 93.0085 270.565 95.9514 266.294 95.9514C242.844 95.9514 219.394 95.9514 195.944 95.9514C193.89 95.9514 192.568 94.8931 192.551 93.2772C192.535 91.6612 193.902 90.5134 196.034 90.5012C198.011 90.5012 199.992 90.5012 201.97 90.5012C203.947 90.5012 204.923 89.5406 204.964 87.831C205.004 86.1214 203.898 84.9491 201.986 84.941C196.046 84.9125 190.106 84.941 184.167 84.9207C181.888 84.9207 180.603 83.3617 181.209 81.416C181.66 79.967 182.787 79.5599 184.179 79.564C189.204 79.564 194.229 79.564 199.252 79.564H214.48C216.583 79.564 217.95 78.4772 217.982 76.8002C218.015 75.1232 216.615 73.9509 214.427 73.9509H188.845C188.338 73.97 187.829 73.9564 187.324 73.9102C186.694 73.8227 186.116 73.5144 185.693 73.0402C185.27 72.5661 185.029 71.9569 185.013 71.3214C184.996 70.6859 185.206 70.0654 185.605 69.5703C186.004 69.0753 186.565 68.7381 187.189 68.6187C187.692 68.5472 188.2 68.5227 188.707 68.5454C194.695 68.5454 200.684 68.5454 206.672 68.5454C208.564 68.5454 209.821 67.4057 209.834 65.7816C209.846 64.1575 208.613 63.0585 206.705 62.9934C206.197 62.9934 205.688 62.9934 205.179 62.9934H179.281C178.774 63.0104 178.267 62.9927 177.763 62.9405C176.193 62.7166 175.322 61.6502 175.367 60.1278C175.412 58.6055 176.453 57.6245 178.048 57.6001C180.839 57.5594 183.63 57.6001 186.42 57.6001L195.973 57.5146Z" fill="white"/>
<path d="M248.633 38.3309C248.226 38.05 247.746 37.8425 247.486 37.472C246.82 36.4745 245.918 35.6571 244.86 35.0927C243.803 34.5283 242.622 34.2345 241.423 34.2373C240.224 34.2401 239.044 34.5395 237.989 35.1089C236.934 35.6782 236.036 36.4998 235.375 37.5005C235.212 37.7099 235.007 37.8823 234.772 38.0065C234.538 38.1307 234.28 38.2038 234.016 38.221C232.368 38.1599 230.729 37.9157 229.077 37.7814C228.582 37.7626 228.086 37.7926 227.596 37.8709C226.319 38.0297 225.049 38.2169 223.776 38.3919L223.633 37.9279L258.731 18.0318L270.411 38.6565C270.088 38.7498 269.757 38.8098 269.422 38.8356C267.771 38.6647 266.123 38.4286 264.467 38.2943C262.978 38.1925 262.612 37.8384 263.112 36.4341C263.378 35.6693 263.812 34.9739 264.382 34.3989C265.098 33.7069 265.195 33.1167 264.703 32.2782C263.483 30.243 262.307 28.163 261.135 26.0912C260.728 25.3911 260.322 25.1102 259.435 25.3219C257.494 25.7818 255.733 25.4684 254.386 23.7426C254.15 23.4373 253.243 23.3355 252.856 23.5309C250.444 24.8131 248.072 26.1807 245.724 27.6013C244.557 28.2974 244.296 29.5144 245.045 30.939C246.058 32.8643 247.193 34.7286 248.263 36.6376C248.523 37.0935 248.747 37.5697 248.987 38.0378L248.633 38.3309Z" fill="white"/>
<path d="M256.668 17.1649C255.635 18.3168 254.907 18.1499 254.134 17.2015C253.234 16.1025 252.23 15.0931 251.286 14.0225C250.773 13.4323 250.293 13.3224 249.581 13.7702C247.832 14.8692 246.099 14.686 244.504 13.4283C243.796 12.8706 243.283 12.9683 242.645 13.5422C240.781 15.2599 238.857 16.9125 237.018 18.6587C235.61 19.9938 235.566 21.0074 236.807 22.4971C237.938 23.8485 239.158 25.1307 240.338 26.4413L240.228 26.9339C239.573 26.9054 238.857 27.0397 238.271 26.8158C234.044 25.208 229.508 27.3857 228.572 31.802C228.206 33.5442 227.279 34.2647 225.411 34.9281C225.216 34.5304 224.974 34.1574 224.691 33.8169C223.064 32.1399 222.132 32.1114 220.427 33.6378C219.142 34.7897 217.795 35.8806 216.615 37.1302C215.582 38.2292 214.435 38.4612 212.742 38.0908C214.663 36.3365 216.424 34.7165 218.198 33.1087C225.491 26.5092 232.787 19.9124 240.086 13.3184C242.189 11.4175 244.321 9.54103 246.412 7.61981C246.953 7.12729 247.38 6.95226 247.937 7.56689C250.838 10.7622 253.735 13.9371 256.668 17.1649Z" fill="white"/>
<path d="M231.286 19.5705C229.951 20.3561 228.975 21.1539 227.852 21.5446C225.489 22.3587 224.081 23.9869 222.812 26.0913C221.803 27.7601 220.127 29.022 218.743 30.4588C218.707 30.4949 218.664 30.5232 218.616 30.5421C218.569 30.561 218.518 30.5701 218.467 30.5687C215.721 29.9663 214.98 32.2701 213.76 33.825C212.983 34.8223 212.328 35.9172 211.579 36.9389C210.883 37.8792 210.057 38.5671 208.507 38.0338L235.338 0L244.752 6.63883C244.195 7.79482 243.564 8.26698 242.514 7.34707C242.287 7.14762 241.998 7.01737 241.77 6.82199C240.684 5.88172 239.768 5.49911 238.442 6.72023C237.323 7.75004 235.688 7.78667 234.264 7.09063C233.251 6.59404 232.73 6.88305 232.157 7.74598C230.781 9.81374 229.309 11.8164 227.889 13.8516C226.839 15.3821 226.998 16.3589 228.454 17.5149C229.231 18.1418 230.065 18.6954 231.286 19.5705Z" fill="white"/>
<path d="M180.615 95.9314C179.089 95.9314 177.568 95.9599 176.046 95.9314C174.342 95.8907 173.166 94.7632 173.17 93.2286C173.164 92.8701 173.23 92.514 173.365 92.1816C173.499 91.8492 173.699 91.5473 173.953 91.2939C174.206 91.0405 174.508 90.8408 174.841 90.7068C175.173 90.5728 175.529 90.5071 175.888 90.5137C179.036 90.4486 182.184 90.4486 185.33 90.5137C187.055 90.5503 188.178 91.7348 188.121 93.306C188.064 94.8772 186.933 95.9029 185.184 95.9355C183.658 95.9558 182.137 95.9355 180.615 95.9314Z" fill="white"/>
<path d="M159.687 79.5478C160.595 79.5478 161.506 79.5112 162.413 79.5478C164.126 79.6333 165.115 80.6061 165.139 82.1651C165.163 83.7241 164.179 84.8068 162.503 84.8679C160.587 84.9371 158.666 84.9411 156.75 84.8679C155.123 84.8068 154.171 83.7689 154.151 82.2791C154.13 80.7893 155.172 79.6577 156.807 79.56C157.763 79.503 158.727 79.56 159.687 79.56V79.5478Z" fill="white"/>
<path d="M173.19 79.5397C174.447 79.442 175.696 79.727 176.335 81.1435C176.884 82.3646 176.567 83.4351 175.59 84.2818C174.516 85.2139 171.656 85.1894 170.578 84.2533C170.112 83.8926 169.787 83.3804 169.658 82.8051C169.53 82.2298 169.606 81.6276 169.874 81.1028C170.363 79.9793 171.278 79.5438 173.19 79.5397Z" fill="white"/>
<path d="M167.613 57.5148C169.696 57.5148 170.867 58.508 170.867 60.2339C170.867 61.9597 169.61 62.9325 167.539 62.9203C165.603 62.9203 164.378 61.8742 164.362 60.242C164.346 58.5202 165.538 57.5148 167.613 57.5148Z" fill="white"/>
<path d="M258.763 60.9217C263.238 60.9217 267.689 60.9217 272.152 60.9217C274.353 60.9217 275 61.5485 275 63.6936C275 66.5429 275 69.3922 275 72.2171C275 74.0691 274.255 74.8343 272.421 74.8384C263.442 74.8384 254.463 74.8995 245.484 74.8384C241.416 74.8018 238.662 71.8059 238.698 67.7803C238.735 63.7547 241.546 60.9909 245.671 60.9461C247.852 60.9217 250.033 60.9461 252.213 60.9461L258.763 60.9217ZM249.52 67.8414C249.523 67.374 249.434 66.9107 249.258 66.4778C249.082 66.0449 248.823 65.651 248.494 65.3187C248.166 64.9863 247.775 64.722 247.345 64.541C246.914 64.3599 246.452 64.2656 245.985 64.2635C245.04 64.2635 244.133 64.6392 243.465 65.3079C242.796 65.9766 242.421 66.8835 242.421 67.8292C242.421 68.7749 242.796 69.6818 243.465 70.3505C244.133 71.0192 245.04 71.3948 245.985 71.3948C246.45 71.3981 246.911 71.3088 247.341 71.1322C247.772 70.9556 248.163 70.6952 248.492 70.3661C248.821 70.037 249.081 69.6457 249.258 69.2151C249.434 68.7845 249.523 68.3231 249.52 67.8576V67.8414Z" fill="white"/>
<path d="M0 38.2785V31.6943C0 24.0542 3.97856 20.2372 11.9357 20.2434C15.0215 20.1015 18.0546 20.9918 20.4298 22.7367C21.5007 23.6378 22.3363 24.7342 22.8783 25.9494C23.4203 27.1647 23.6556 28.4697 23.568 29.7734V30.069H17.3857V29.8197C17.4461 29.1696 17.3438 28.5157 17.0862 27.9044C16.8286 27.293 16.4219 26.7392 15.895 26.2819C15.3681 25.8247 14.7337 25.4752 14.0369 25.2584C13.34 25.0415 12.5977 24.9625 11.8624 25.0269C11.0481 24.9648 10.229 25.0805 9.4774 25.3639C8.72577 25.6474 8.06472 26.0898 7.55263 26.6522C6.65301 27.7326 6.20322 29.5149 6.20322 31.9805V38.1954C6.20322 40.5225 6.66348 42.2216 7.59448 43.2744C8.13079 43.8207 8.80492 44.2481 9.56257 44.5224C10.3202 44.7967 11.1402 44.9101 11.9566 44.8535C12.6903 44.8985 13.4266 44.8111 14.1208 44.5968C14.815 44.3825 15.4524 44.0457 15.9944 43.6069C16.4759 43.1499 16.8473 42.6115 17.0865 42.0242C17.3256 41.437 17.4274 40.813 17.3857 40.1901V39.8576H23.4738V40.1254C23.4738 43.2036 22.4278 45.5738 20.3356 47.236C18.2435 48.8983 15.3982 49.7232 11.7997 49.7109C3.93322 49.6924 0 45.8816 0 38.2785Z" fill="white"/>
<path d="M28.4998 38.2587V31.682C28.4998 24.0506 32.2854 20.238 39.8565 20.2442C41.3534 20.1691 42.8517 20.3668 44.2652 20.8259C45.6787 21.285 46.9796 21.9963 48.0931 22.9191C50.0996 24.7086 51.1029 27.6295 51.1029 31.682V38.2587C51.1029 42.3111 50.0696 45.229 48.0029 47.0123C45.7108 48.8784 42.7133 49.8424 39.6559 49.6965C32.2118 49.6658 28.4931 45.8532 28.4998 38.2587ZM43.8895 43.2212C44.7623 42.1605 45.1937 40.454 45.1937 38.1757V31.9679C45.1937 29.5082 44.759 27.7402 43.8895 26.6641C43.3677 26.1513 42.737 25.7426 42.0364 25.4631C41.3357 25.1837 40.5801 25.0395 39.8163 25.0395C39.0526 25.0395 38.297 25.1837 37.5964 25.4631C36.8958 25.7426 36.265 26.1513 35.7432 26.6641C34.8938 27.7341 34.4691 29.5143 34.4691 32.0048V38.2126C34.4691 40.5617 34.8938 42.2588 35.7432 43.3042C36.2403 43.8509 36.8743 44.2784 37.5908 44.5499C38.3073 44.8214 39.0849 44.9289 39.8565 44.8631C40.6276 44.9063 41.3985 44.775 42.1016 44.4807C42.8047 44.1864 43.4186 43.7382 43.8895 43.1751V43.2212Z" fill="white"/>
<path d="M79.6028 20.2286V49.711H73.6126L62.0072 31.2999V49.711H56.017V20.2286H62.0072L73.6126 38.6776V20.2286H79.6028Z" fill="white"/>
<path d="M105.154 25.095H96.9513V49.711H90.753V25.095H82.5506V20.2286H105.102L105.154 25.095Z" fill="white"/>
<path d="M118.672 37.7454H114.15V49.711H108.102V20.2419H120.197C122.911 20.1105 125.574 20.959 127.626 22.6085C128.56 23.4327 129.291 24.4335 129.77 25.5427C130.248 26.6519 130.463 27.8434 130.399 29.0362C130.461 30.7691 129.955 32.4788 128.946 33.9399C127.933 35.3135 126.469 36.3491 124.771 36.8934L131.688 49.711H124.72L118.672 37.7454ZM114.15 33.0879H119.88C121.083 33.1541 122.267 32.7802 123.175 32.0466C123.586 31.6477 123.902 31.174 124.105 30.6558C124.307 30.1376 124.391 29.586 124.351 29.0362C124.375 28.5119 124.281 27.9888 124.075 27.4999C123.869 27.011 123.556 26.5671 123.154 26.1963C122.712 25.8259 122.195 25.5405 121.633 25.3569C121.071 25.1732 120.475 25.095 119.88 25.1266H114.15V33.0879Z" fill="white"/>
<path d="M134.636 38.2587V31.682C134.636 24.0506 138.422 20.238 145.993 20.2442C147.49 20.1691 148.988 20.3668 150.402 20.8259C151.815 21.285 153.116 21.9963 154.229 22.9191C156.236 24.7086 157.239 27.6295 157.239 31.682V38.2587C157.239 42.3111 156.206 45.229 154.139 47.0123C151.847 48.8784 148.85 49.8424 145.792 49.6965C138.348 49.6658 134.629 45.8532 134.636 38.2587ZM150.016 43.2212C150.899 42.1605 151.33 40.454 151.33 38.1757V31.9679C151.33 29.5328 150.899 27.7618 150.016 26.6641C149.544 26.1091 148.932 25.6692 148.232 25.3829C147.532 25.0966 146.767 24.9728 146.003 25.0223C145.227 24.9578 144.445 25.0706 143.727 25.3506C143.01 25.6306 142.379 26.0691 141.89 26.6272C141.04 27.6972 140.615 29.4774 140.615 31.9679V38.1757C140.615 40.5247 141.04 42.222 141.89 43.2673C142.387 43.814 143.021 44.2415 143.737 44.513C144.454 44.7846 145.231 44.892 146.003 44.8262C146.767 44.8722 147.533 44.7458 148.232 44.4581C148.931 44.1703 149.544 43.7299 150.016 43.1751V43.2212Z" fill="white"/>
<path d="M162.153 20.2286H168.101V44.8525H181.808V49.711H162.153V20.2286Z" fill="white"/>
<path d="M184.756 43.8145H191.635V49.711H184.756V43.8145Z" fill="white"/>
<path d="M0 80.2048V71.093C0 60.52 5.27146 55.2377 15.8144 55.2462C19.9033 55.0486 23.9225 56.2809 27.0689 58.6967C28.4902 59.9421 29.5989 61.4591 30.3171 63.1413C31.0354 64.8236 31.346 66.6302 31.227 68.4348V68.8437H23.0356V68.4987C23.0877 67.6152 22.9464 66.7311 22.6202 65.899C22.294 65.0669 21.7895 64.3038 21.1368 63.6552C20.415 63.0338 19.5634 62.5547 18.6339 62.2471C17.7045 61.9394 16.7169 61.8098 15.7313 61.8661C14.6503 61.7802 13.563 61.9403 12.5649 62.3325C11.5668 62.7247 10.6885 63.3369 10.007 64.1153C8.81504 65.6105 8.23296 68.077 8.23296 71.4891V80.0898C8.23296 83.3103 8.84275 85.6617 10.0763 87.1186C10.7826 87.8794 11.6752 88.4744 12.6802 88.8544C13.6851 89.2344 14.7738 89.3885 15.8561 89.3039C16.826 89.3659 17.7994 89.2449 18.7169 88.9482C19.6344 88.6516 20.4766 88.1856 21.1922 87.5787C21.8301 86.9463 22.3223 86.2012 22.6391 85.3885C22.956 84.5758 23.0909 83.7123 23.0356 82.8502V82.3902H31.1023V82.7608C31.1023 87.0206 29.7163 90.3008 26.9442 92.6011C24.1722 94.9014 20.4345 96.0302 15.7313 95.9876C5.24374 95.9876 0 90.7267 0 80.2048Z" fill="white"/>
<path d="M60.49 88.0662H45.41L42.7438 95.9103H33.9695L49.5574 55.2256H56.3567L72.0151 95.9887H63.1843L60.49 88.0662ZM58.2753 81.6079L52.9288 65.9851L47.667 81.6079H58.2753Z" fill="white"/>
<path d="M90.706 79.4445H84.4385V95.9887H76.0914V55.2434H92.814C96.5662 55.0645 100.248 56.2373 103.085 58.5156C104.372 59.6579 105.379 61.0424 106.038 62.5756C106.697 64.1088 106.993 65.7549 106.905 67.4029C106.992 69.7988 106.291 72.1627 104.896 74.1829C103.502 76.0874 101.476 77.5207 99.1239 78.2666L108.702 95.9887H99.0673L90.706 79.4445ZM84.4385 73.0049H92.3472C94.0152 73.0957 95.6554 72.579 96.9168 71.5651C97.4822 71.0118 97.9183 70.3566 98.1982 69.6406C98.4781 68.9245 98.5957 68.1628 98.5438 67.4029C98.5752 66.677 98.443 65.9531 98.1556 65.2771C97.8682 64.6011 97.4318 63.9878 96.8743 63.4762C96.2636 62.9641 95.5487 62.5695 94.7715 62.3156C93.9942 62.0617 93.1701 61.9535 92.3472 61.9973H84.4385V73.0049Z" fill="white"/>
<path d="M112.778 55.248H128.944C131.13 55.1408 133.318 55.4185 135.383 56.0651C137.449 56.7117 139.351 57.7146 140.98 59.0164C143.919 61.5374 145.389 65.6677 145.389 71.4074V79.7293C145.389 85.4865 143.885 89.6299 140.877 92.1596C137.534 94.8114 133.15 96.1799 128.679 95.9672H112.778V55.248ZM128.826 89.2679C129.942 89.3366 131.06 89.1629 132.084 88.7617C133.108 88.3606 134.008 87.744 134.705 86.965C135.998 85.421 136.659 83.0396 136.659 79.7031V71.8523C136.659 68.3849 136.013 65.8858 134.734 64.3287C134.045 63.5397 133.148 62.9144 132.123 62.5081C131.097 62.1018 129.975 61.9272 128.856 61.9997H121.508V89.2679H128.826Z" fill="white"/>
<path d="M21.8531 72.0956C22.13 72.352 22.3453 72.6585 22.4853 72.9956C22.6254 73.3327 22.687 73.693 22.6662 74.0532C22.6837 74.4033 22.6203 74.7528 22.4802 75.0788C22.3401 75.4049 22.1264 75.7001 21.8531 75.9452C21.2402 76.443 20.4367 76.6974 19.6193 76.6523H17.9127V79.8794H16.1525V71.3831H19.6193C20.0245 71.361 20.4305 71.4126 20.8138 71.5349C21.1972 71.6572 21.5504 71.8478 21.8531 72.0956V72.0956ZM20.5426 74.9296C20.668 74.8158 20.7654 74.6787 20.8281 74.5275C20.8908 74.3764 20.9173 74.2146 20.906 74.0532C20.9182 73.8825 20.8932 73.7112 20.8323 73.5495C20.7715 73.3877 20.676 73.2388 20.5515 73.1113C20.4169 72.9985 20.2589 72.9117 20.0871 72.8559C19.9152 72.8001 19.7328 72.7765 19.5508 72.7864H17.9246V75.2435H19.5508C19.9092 75.2576 20.2599 75.1452 20.5307 74.9296H20.5426Z" fill="white"/>
<path d="M22.0251 78.1007H23.8786V79.9965H22.0251V78.1007Z" fill="white"/>
<path d="M25.2205 71.3781H26.9207V79.8794H25.2205V71.3781Z" fill="white"/>
</svg>
